<svg xmlns="http://www.w3.org/2000/svg" width="138.932" height="101.277" viewBox="0 0 138.932 101.277">
  <g id="Service_24_7-bro" data-name="Service 24_7-bro" transform="translate(-17.906 -162.592)">
    <g id="freepik--Character--inject-6" transform="translate(69.549 163.097)">
      <path id="Path_13520" data-name="Path 13520" d="M315.774,320.17h20.641s-11.174,27.477-9.066,39.749H306.43S310.333,328.539,315.774,320.17Z" transform="translate(-249.627 -259.647)" fill="#263238" stroke="#263238" stroke-linecap="round" stroke-linejoin="round" stroke-width="1"/>
      <path id="Path_13521" data-name="Path 13521" d="M274.907,217.018s.2,3.718,7.128,5.888,13.952,0,17.879,3.083a8.271,8.271,0,0,1,2.478,10.23c-1.345,2.377-3.514,4.751,2.894,7.541s2.582,10.955-.1,13.952-7.321,4.443-12.5,3.41-11.263-13.536-17.875-20.152-7.421-18.819-3.2-22.318S274.907,217.018,274.907,217.018Z" transform="translate(-226.619 -195.936)" fill="#263238" stroke="#263238" stroke-linecap="round" stroke-linejoin="round" stroke-width="1"/>
      <path id="Path_13522" data-name="Path 13522" d="M279.455,182.585s2.851-1.245,3.583,1.156.948,9,.948,9l-1.541-.366s.366-7.46-1.318-8.631-3,1.464-3,1.464Z" transform="translate(-232.231 -174.878)" fill="#a6a6a6" stroke="#263238" stroke-linecap="round" stroke-linejoin="round" stroke-width="1"/>
      <path id="Path_13523" data-name="Path 13523" d="M198.5,333.624l9.741-5.209s-.674-10.222-.578-10.608S210.2,297.42,210.2,297.42l-6.681,19.809Z" transform="translate(-183.284 -245.663)" fill="#263238" stroke="#263238" stroke-linecap="round" stroke-linejoin="round" stroke-width="1"/>
      <path id="Path_13524" data-name="Path 13524" d="M240.7,263.458s9.633,5.248,10.928,5.78.532,7.225.532,11.6-6.55,41.306-6.55,41.306H197.1s8.2-12.565,8.415-15.844-1.2-5.9-1.422-9.07,4.481-22.514,5.244-23.5a36.934,36.934,0,0,1,4.046-3.495l11.583-10.145,5.356-1.2Z" transform="translate(-182.423 -221.973)" fill="#2e61e6" stroke="#263238" stroke-linecap="round" stroke-linejoin="round" stroke-width="1"/>
      <line id="Line_22" data-name="Line 22" x1="1.618" y2="3.329" transform="translate(24.51 87.876)" fill="none" stroke="#263238" stroke-linecap="round" stroke-linejoin="round" stroke-width="1"/>
      <path id="Path_13525" data-name="Path 13525" d="M228.4,366.34s-2.4,1.638-1.2,2.512a5.946,5.946,0,0,1,1.749,2.732l-1.541,3" transform="translate(-200.714 -288.027)" fill="none" stroke="#263238" stroke-linecap="round" stroke-linejoin="round" stroke-width="1"/>
      <path id="Path_13526" data-name="Path 13526" d="M260.24,387c.651.05,1.337.089,2.054.108" transform="translate(-221.234 -300.727)" fill="none" stroke="#263238" stroke-linecap="round" stroke-linejoin="round" stroke-width="1"/>
      <path id="Path_13527" data-name="Path 13527" d="M233.39,380s2.616,1.749,8.315,2.5" transform="translate(-204.73 -296.424)" fill="none" stroke="#263238" stroke-linecap="round" stroke-linejoin="round" stroke-width="1"/>
      <path id="Path_13528" data-name="Path 13528" d="M214.134,198.426a2.609,2.609,0,0,0-1.46,2.485c0,1.9,1.541,5.629,1.541,5.629l.879-.289s-1.607-3.876-1.387-5.267a2.243,2.243,0,0,1,1.541-1.753l-.293-.952Z" transform="translate(-191.994 -184.723)" fill="#a6a6a6" stroke="#263238" stroke-linecap="round" stroke-linejoin="round" stroke-width="1"/>
      <path id="Path_13529" data-name="Path 13529" d="M219.318,219.115c.385,1.927-.274,3.664-1.445,3.892s-2.42-1.156-2.79-3.083.274-3.668,1.445-3.892S218.948,217.192,219.318,219.115Z" transform="translate(-193.413 -195.621)" fill="#fff" stroke="#263238" stroke-linecap="round" stroke-linejoin="round" stroke-width="1"/>
      <path id="Path_13530" data-name="Path 13530" d="M224.762,216.729c.728,2.458-.123,4.882-1.9,5.394s-3.815-1.036-4.547-3.495.123-4.882,1.9-5.394S224.034,214.27,224.762,216.729Z" transform="translate(-195.301 -193.855)" fill="#263238" stroke="#263238" stroke-linecap="round" stroke-linejoin="round" stroke-width="1"/>
      <path id="Path_13531" data-name="Path 13531" d="M243.864,238.9l1.73,5.626-5.687,7.167-.948,5.537s-.944,15.8-.4,18.233a18.767,18.767,0,0,1,.539,3.106s11.752-13.64,17.559-22.013,7.155-13.509,7.155-13.509l-5.672-3.083-2.7-12.561Z" transform="translate(-207.802 -202.623)" fill="#fff" stroke="#263238" stroke-linecap="round" stroke-linejoin="round" stroke-width="1"/>
      <path id="Path_13532" data-name="Path 13532" d="M261.109,243.11l-7.24,11.07-2.019-6.516Z" transform="translate(-216.077 -212.28)" fill="#263238" stroke="#263238" stroke-linecap="round" stroke-linejoin="round" stroke-width="1"/>
      <path id="Path_13533" data-name="Path 13533" d="M239,300.379l-.054.312s-.944,15.8-.4,18.233a18.765,18.765,0,0,1,.539,3.106s11.752-13.64,17.559-22.013c.455-.655.878-1.291,1.283-1.907A50.655,50.655,0,0,1,239,300.379Z" transform="translate(-207.796 -246.087)" fill="#fff" stroke="#263238" stroke-linecap="round" stroke-linejoin="round" stroke-width="1"/>
      <path id="Path_13534" data-name="Path 13534" d="M222.874,164.882s-5.414,3.291-6,8.261,1.464,10.311,2.27,12.43,3.583,10.384,5.044,11.995,6.215,4.019,7.02,4.458a3.613,3.613,0,0,0,3.51-.586c1.245-.879,6.362-7.09,7.167-8.554a14.4,14.4,0,0,0,.948-4.682s-.146-6.435-.435-10.6-.073-8.192-3.51-11.7S226.238,162.32,222.874,164.882Z" transform="translate(-194.514 -163.097)" fill="#fff" stroke="#263238" stroke-linecap="round" stroke-linejoin="round" stroke-width="1"/>
      <path id="Path_13535" data-name="Path 13535" d="M242.4,177.605c-.293-4.169-.073-8.192-3.51-11.7s-12.65-3.583-16.014-1.021c0,0-5.414,3.291-6,8.261a22.335,22.335,0,0,0,.886,8.331c1.245-.771,5.445-3.345,10.157-6.647a20.981,20.981,0,0,0,7.46-10.091s.655-.366.512.439-2.343,5.556-3.144,6.288l-.805.728s.659-.146,3.657,3.437,4.678,5.048,5.556,5.487a4.778,4.778,0,0,0,1.453.281C242.549,180.083,242.48,178.757,242.4,177.605Z" transform="translate(-194.516 -163.097)" fill="#263238" stroke="#263238" stroke-linecap="round" stroke-linejoin="round" stroke-width="1"/>
      <path id="Path_13536" data-name="Path 13536" d="M257.942,219.477c.092.536-.1,1.021-.443,1.079s-.686-.328-.771-.863.1-1.021.443-1.083S257.845,218.941,257.942,219.477Z" transform="translate(-219.063 -197.216)" fill="#263238" stroke="#263238" stroke-linecap="round" stroke-linejoin="round" stroke-width="1"/>
      <path id="Path_13537" data-name="Path 13537" d="M236.689,222.513c.1.539-.1,1.021-.439,1.083s-.69-.328-.771-.867.1-1.017.439-1.079S236.6,221.977,236.689,222.513Z" transform="translate(-206.003 -199.084)" fill="#263238" stroke="#263238" stroke-linecap="round" stroke-linejoin="round" stroke-width="1"/>
      <path id="Path_13538" data-name="Path 13538" d="M251.2,210.782s2.416-1.9,4.624-.366" transform="translate(-215.678 -191.815)" fill="none" stroke="#263238" stroke-linecap="round" stroke-linejoin="round" stroke-width="1"/>
      <path id="Path_13539" data-name="Path 13539" d="M230.788,214.382a4.012,4.012,0,0,0-4.828,1.1" transform="translate(-200.163 -194.383)" fill="none" stroke="#263238" stroke-linecap="round" stroke-linejoin="round" stroke-width="1"/>
      <path id="Path_13540" data-name="Path 13540" d="M239.82,215.17a3.885,3.885,0,0,1,2.119,2.778" transform="translate(-208.682 -195.105)" fill="none" stroke="#263238" stroke-linecap="round" stroke-linejoin="round" stroke-width="1"/>
      <path id="Path_13541" data-name="Path 13541" d="M245.51,235.48a2.551,2.551,0,0,0,2.192.146" transform="translate(-212.18 -207.59)" fill="none" stroke="#263238" stroke-linecap="round" stroke-linejoin="round" stroke-width="1"/>
      <path id="Path_13542" data-name="Path 13542" d="M244,237.5a13.343,13.343,0,0,0,4.755-1.1,8.458,8.458,0,0,0,3.583-2.632" transform="translate(-211.252 -206.538)" fill="none" stroke="#263238" stroke-linecap="round" stroke-linejoin="round" stroke-width="1"/>
      <path id="Path_13543" data-name="Path 13543" d="M247.22,240.807a3.194,3.194,0,0,0,2.119.8c1.318,0,2.485-2.339,2.485-2.339A23.513,23.513,0,0,1,247.22,240.807Z" transform="translate(-213.231 -209.919)" fill="none" stroke="#263238" stroke-linecap="round" stroke-linejoin="round" stroke-width="1"/>
      <ellipse id="Ellipse_5059" data-name="Ellipse 5059" cx="3.364" cy="4.643" rx="3.364" ry="4.643" transform="translate(45.834 16.188)" fill="#263238" stroke="#263238" stroke-linecap="round" stroke-linejoin="round" stroke-width="1"/>
      <ellipse id="Ellipse_5060" data-name="Ellipse 5060" cx="2.158" cy="3.545" rx="2.158" ry="3.545" transform="translate(48.465 16.485)" fill="#fff" stroke="#263238" stroke-linecap="round" stroke-linejoin="round" stroke-width="1"/>
      <path id="Path_13544" data-name="Path 13544" d="M222.49,230s.023,7.6,2,8.257,7.387-.659,7.387-.659" transform="translate(-198.03 -204.221)" fill="none" stroke="#263238" stroke-linecap="round" stroke-linejoin="round" stroke-width="2"/>
      <path id="Path_13545" data-name="Path 13545" d="M248.917,247.95c0,.586-.721,1.06-1.611,1.06s-1.607-.474-1.607-1.06.721-1.06,1.607-1.06S248.917,247.364,248.917,247.95Z" transform="translate(-212.297 -214.603)" fill="#263238" stroke="#263238" stroke-linecap="round" stroke-linejoin="round" stroke-width="1"/>
      <path id="Path_13546" data-name="Path 13546" d="M238.808,272.75s-2.312,4.042-3.934,16.064-.547,14.422-.547,14.422l-2.312,1.422s-4.8-.547-3.167-11.91,2.547-13.224,2.547-13.224Z" transform="translate(-201.728 -230.499)" fill="#2e61e6" stroke="#263238" stroke-linecap="round" stroke-linejoin="round" stroke-width="1"/>
      <path id="Path_13547" data-name="Path 13547" d="M255.6,262s-5.244,12.457-10.708,20.218S232,301.11,232,301.11s3.934-1.857,12.242-8.092,16.719-20.545,17.594-21.963a43.275,43.275,0,0,0,2.185-4.7Z" transform="translate(-203.876 -223.891)" fill="#2e61e6" stroke="#263238" stroke-linecap="round" stroke-linejoin="round" stroke-width="1"/>
      <path id="Path_13548" data-name="Path 13548" d="M165.337,401a27.208,27.208,0,0,1-4.019,2.011c-2.458,1.006-2.7.828-1.9,1.676s4.917-.67,6.034-1.117,3.241-1.117,3.241-1.117a26.032,26.032,0,0,0,4.134,1.9,6.685,6.685,0,0,0,3.468-.223,3.487,3.487,0,0,0-1.229-2.794c-1.341-1.006-4.238-3.352-5.252-3.241S165.337,401,165.337,401Z" transform="translate(-159.01 -307.543)" fill="#fff" stroke="#263238" stroke-linecap="round" stroke-linejoin="round" stroke-width="1"/>
      <path id="Path_13549" data-name="Path 13549" d="M166.874,398.546a2.99,2.99,0,0,0-2.235.335,8.349,8.349,0,0,0-2.011,3.352c-.112.559.112.894,1.006.112s2.458-1.9,2.458-1.9l1.341-.447Z" transform="translate(-161.217 -307.772)" fill="#fff" stroke="#263238" stroke-linecap="round" stroke-linejoin="round" stroke-width="1"/>
      <path id="Path_13550" data-name="Path 13550" d="M174.319,395.38s-2.7-.894-3.241-.112-2.458,5.252-1.9,5.587,1.341-.335,2.347-1.788,1.564-2.235,1.564-2.235l1.341-.223Z" transform="translate(-165.198 -305.612)" fill="#fff" stroke="#263238" stroke-linecap="round" stroke-linejoin="round" stroke-width="1"/>
      <path id="Path_13551" data-name="Path 13551" d="M181.62,395.2s-3.495-2.732-4.369-2.077a29.309,29.309,0,0,0-4.042,5.78c-.328.863,1.2.439,2.4-.655s2.624-2.312,2.624-2.312l2.732,1.422Z" transform="translate(-167.71 -304.425)" fill="#fff" stroke="#263238" stroke-linecap="round" stroke-linejoin="round" stroke-width="1"/>
      <path id="Path_13552" data-name="Path 13552" d="M196.075,399.514a33.662,33.662,0,0,1-6.446-.875c-1.857-.655-5.576-2.077-6.666-1.969s-5.248,4.154-6.123,5.028-.771,1.11.089,1.218,2.971-1.326,3.957-2.092a10.788,10.788,0,0,1,1.965-1.2,24.546,24.546,0,0,0,2.624,3.171,8.445,8.445,0,0,0,4.7,1.638,15.4,15.4,0,0,0,1.857-.328l3.718-.108Z" transform="translate(-169.596 -306.667)" fill="#fff" stroke="#263238" stroke-linecap="round" stroke-linejoin="round" stroke-width="1"/>
      <path id="Path_13553" data-name="Path 13553" d="M258.224,296.476s-4.042,4.7-3.822,6.338.328,3.275.328,3.275L251.778,323.9s-2.512-1.2-2.512-.22v.986l-23.616,2.4-.22,8.3,37.591.108a14.655,14.655,0,0,0,2.077-2.84,142.728,142.728,0,0,0,5.464-27.866c1.094-13.879.547-20.106,0-21.192s-6.993-3.167-6.993-3.167" transform="translate(-199.837 -235.213)" fill="#2e61e6" stroke="#263238" stroke-linecap="round" stroke-linejoin="round" stroke-width="1"/>
      <path id="Path_13554" data-name="Path 13554" d="M296.08,393a26.894,26.894,0,0,0,5.572,2.84" transform="translate(-243.265 -304.415)" fill="#fff" stroke="#263238" stroke-linecap="round" stroke-linejoin="round" stroke-width="1"/>
      <path id="Path_13555" data-name="Path 13555" d="M203.907,291l2.7-8.658a18.662,18.662,0,0,0,2.851-3.58,11.819,11.819,0,0,0,.975-6.269c-.181-.651,2.362-3.58,3.083-4.624a3.955,3.955,0,0,0,.162-4.316c-.975-1.383-1.464.9-2.115,1.954a8.751,8.751,0,0,1-2.932,2.115l-2.408,1.957s-3.988,3.5-4.238,3.988a21.493,21.493,0,0,0-.732,2.034l.328,4.72-2.115,8.219Z" transform="translate(-183.874 -224.577)" fill="#fff" stroke="#263238" stroke-linecap="round" stroke-linejoin="round" stroke-width="1"/>
      <path id="Path_13556" data-name="Path 13556" d="M212.73,258.6s1.954-3.083,2.524-4.069,1.464-4.882,2.034-4.624,1.156,1.541.979,3.256-2.2,5.614-2.2,5.614Z" transform="translate(-192.031 -216.452)" fill="none" stroke="#263238" stroke-linecap="round" stroke-linejoin="round" stroke-width="1"/>
      <path id="Path_13557" data-name="Path 13557" d="M200.48,290.434l1.711-5.78-.74-9.278,2.277-4.393,6.265-.813s3.826,2.034,4.154,2.034,0,.894-.732,1.056a5.88,5.88,0,0,1-2.119-.243l2.362,1.541s-.162.732-.732.894a8.4,8.4,0,0,1-1.711.166s2.034,1.3,1.541,1.541a3.557,3.557,0,0,1-1.541.324h-1.541l-1.221-.162-1.873.732s1.3,3.337,1.221,4.967-2.115,2.7-2.115,2.7" transform="translate(-184.501 -228.913)" fill="#fff" stroke="#263238" stroke-linecap="round" stroke-linejoin="round" stroke-width="1"/>
      <path id="Path_13558" data-name="Path 13558" d="M217.02,275.87a5.022,5.022,0,0,0-2.034-1.06c-.732,0-5.206.813-5.206.813" transform="translate(-190.217 -231.765)" fill="none" stroke="#263238" stroke-linecap="round" stroke-linejoin="round" stroke-width="1"/>
      <path id="Path_13559" data-name="Path 13559" d="M214.726,282.476a11.716,11.716,0,0,0-2.767-1.156c-.651,0-5.78,1.3-5.78,1.3" transform="translate(-188.004 -235.767)" fill="none" stroke="#263238" stroke-linecap="round" stroke-linejoin="round" stroke-width="1"/>
      <path id="Path_13560" data-name="Path 13560" d="M183.83,318.05l6.608,4.45s-2.944,15.8-3.233,17.15a19.775,19.775,0,0,1-3.468,5.98c-1.06,1.063-2.312.867-5.206.1s-5.394-3.083-5.306-6.076S183.83,318.05,183.83,318.05Z" transform="translate(-167.747 -258.344)" fill="#2e61e6" stroke="#263238" stroke-linecap="round" stroke-linejoin="round" stroke-width="1"/>
    </g>
    <g id="freepik--Device--inject-6" transform="translate(18.406 207.163)">
      <rect id="Rectangle_1106" data-name="Rectangle 1106" width="1.919" height="0.59" transform="translate(31.153 53.929)" fill="#fff" stroke="#263238" stroke-linecap="round" stroke-linejoin="round" stroke-width="1"/>
      <rect id="Rectangle_1107" data-name="Rectangle 1107" width="1.919" height="0.59" transform="translate(33.811 53.929)" fill="#fff" stroke="#263238" stroke-linecap="round" stroke-linejoin="round" stroke-width="1"/>
      <rect id="Rectangle_1108" data-name="Rectangle 1108" width="1.919" height="0.59" transform="translate(36.47 53.929)" fill="#fff" stroke="#263238" stroke-linecap="round" stroke-linejoin="round" stroke-width="1"/>
      <rect id="Rectangle_1109" data-name="Rectangle 1109" width="1.919" height="0.59" transform="translate(39.133 53.929)" fill="#fff" stroke="#263238" stroke-linecap="round" stroke-linejoin="round" stroke-width="1"/>
      <rect id="Rectangle_1110" data-name="Rectangle 1110" width="1.919" height="0.59" transform="translate(41.791 53.929)" fill="#fff" stroke="#263238" stroke-linecap="round" stroke-linejoin="round" stroke-width="1"/>
      <rect id="Rectangle_1111" data-name="Rectangle 1111" width="1.919" height="0.59" transform="translate(44.45 53.929)" fill="#fff" stroke="#263238" stroke-linecap="round" stroke-linejoin="round" stroke-width="1"/>
      <rect id="Rectangle_1112" data-name="Rectangle 1112" width="1.919" height="0.59" transform="translate(47.109 53.929)" fill="#fff" stroke="#263238" stroke-linecap="round" stroke-linejoin="round" stroke-width="1"/>
      <rect id="Rectangle_1113" data-name="Rectangle 1113" width="1.919" height="0.59" transform="translate(49.767 53.929)" fill="#fff" stroke="#263238" stroke-linecap="round" stroke-linejoin="round" stroke-width="1"/>
      <rect id="Rectangle_1114" data-name="Rectangle 1114" width="1.919" height="0.59" transform="translate(52.426 53.929)" fill="#fff" stroke="#263238" stroke-linecap="round" stroke-linejoin="round" stroke-width="1"/>
      <rect id="Rectangle_1115" data-name="Rectangle 1115" width="1.919" height="0.59" transform="translate(55.085 53.929)" fill="#fff" stroke="#263238" stroke-linecap="round" stroke-linejoin="round" stroke-width="1"/>
      <rect id="Rectangle_1116" data-name="Rectangle 1116" width="1.919" height="0.59" transform="translate(57.747 53.929)" fill="#fff" stroke="#263238" stroke-linecap="round" stroke-linejoin="round" stroke-width="1"/>
      <rect id="Rectangle_1117" data-name="Rectangle 1117" width="1.919" height="0.59" transform="translate(60.406 53.929)" fill="#fff" stroke="#263238" stroke-linecap="round" stroke-linejoin="round" stroke-width="1"/>
      <rect id="Rectangle_1118" data-name="Rectangle 1118" width="1.919" height="0.59" transform="translate(63.065 53.929)" fill="#fff" stroke="#263238" stroke-linecap="round" stroke-linejoin="round" stroke-width="1"/>
      <rect id="Rectangle_1119" data-name="Rectangle 1119" width="1.919" height="0.59" transform="translate(65.723 53.929)" fill="#fff" stroke="#263238" stroke-linecap="round" stroke-linejoin="round" stroke-width="1"/>
      <rect id="Rectangle_1120" data-name="Rectangle 1120" width="1.919" height="0.59" transform="translate(68.382 53.929)" fill="#fff" stroke="#263238" stroke-linecap="round" stroke-linejoin="round" stroke-width="1"/>
      <rect id="Rectangle_1121" data-name="Rectangle 1121" width="1.919" height="0.59" transform="translate(71.041 53.929)" fill="#fff" stroke="#263238" stroke-linecap="round" stroke-linejoin="round" stroke-width="1"/>
      <rect id="Rectangle_1122" data-name="Rectangle 1122" width="47.544" height="1.672" transform="translate(30.051 54.395)" fill="#fff" stroke="#263238" stroke-linecap="round" stroke-linejoin="round" stroke-width="1"/>
      <rect id="Rectangle_1123" data-name="Rectangle 1123" width="18.225" height="1.672" transform="translate(59.366 54.395)" fill="#fff" stroke="#263238" stroke-linecap="round" stroke-linejoin="round" stroke-width="1"/>
      <path id="Path_13561" data-name="Path 13561" d="M71.165,317.209H33.786L26.28,277.46H63.66Z" transform="translate(-26.28 -277.46)" fill="#263238" stroke="#fff" stroke-linecap="round" stroke-linejoin="round" stroke-width="1"/>
      <path id="Path_13562" data-name="Path 13562" d="M70.607,317.808H34.344L27.22,280.07H63.478Z" transform="translate(-26.858 -279.064)" fill="#263238" stroke="#fff" stroke-linecap="round" stroke-linejoin="round" stroke-width="1"/>
      <path id="Path_13563" data-name="Path 13563" d="M70.239,325.455H43.278L37.98,297.4H64.941Z" transform="translate(-33.472 -289.717)" fill="#263238" stroke="#fff" stroke-linecap="round" stroke-linejoin="round" stroke-width="1"/>
      <line id="Line_23" data-name="Line 23" x1="4.146" y1="6.678" transform="translate(0.362 1.006)" fill="none" stroke="#263238" stroke-linecap="round" stroke-linejoin="round" stroke-width="1"/>
      <line id="Line_24" data-name="Line 24" y1="6.678" x2="5.152" transform="translate(31.469 1.006)" fill="#263238" stroke="#fff" stroke-linecap="round" stroke-linejoin="round" stroke-width="1"/>
      <line id="Line_25" data-name="Line 25" x2="6.982" y2="3.005" transform="translate(36.767 35.738)" fill="#263238" stroke="#fff" stroke-linecap="round" stroke-linejoin="round" stroke-width="1"/>
      <line id="Line_26" data-name="Line 26" x1="2.32" y2="3.005" transform="translate(7.487 35.738)" fill="#fff" stroke="#263238" stroke-linecap="round" stroke-linejoin="round" stroke-width="1"/>
      <path id="Path_13564" data-name="Path 13564" d="M70.388,342.843H64.25l3.907-3.483H74.3Z" transform="translate(-49.62 -315.509)" fill="#263238" stroke="#fff" stroke-linecap="round" stroke-linejoin="round" stroke-width="1"/>
      <rect id="Rectangle_1124" data-name="Rectangle 1124" width="22.456" height="2.231" transform="translate(18.676 53.975)" fill="#263238" stroke="#fff" stroke-linecap="round" stroke-linejoin="round" stroke-width="1"/>
      <path id="Path_13565" data-name="Path 13565" d="M77.921,409.678H71.783L64.25,401.12h6.138Z" transform="translate(-49.62 -353.472)" fill="#263238" stroke="#fff" stroke-linecap="round" stroke-linejoin="round" stroke-width="1"/>
      <rect id="Rectangle_1125" data-name="Rectangle 1125" width="6.138" height="20.083" transform="translate(14.63 27.477)" fill="#263238" stroke="#fff" stroke-linecap="round" stroke-linejoin="round" stroke-width="1"/>
    </g>
  </g>
</svg>
