<svg xmlns="http://www.w3.org/2000/svg" width="113.625" height="108.186" viewBox="0 0 113.625 108.186">
  <g id="ID_Card-pana" data-name="ID Card-pana" transform="translate(-66.777 -106.779)">
    <g id="freepik--Icon--inject-2" transform="translate(66.777 163.629)">
      <path id="Path_13566" data-name="Path 13566" d="M74.666,287.32a7.891,7.891,0,1,1,7.284-10.935,8.5,8.5,0,0,1,.6,3.126A7.884,7.884,0,0,1,74.666,287.32Zm0-15.438a7.55,7.55,0,1,0,7.55,7.619h0a8.278,8.278,0,0,0-.583-2.974,7.55,7.55,0,0,0-6.97-4.631Z" transform="translate(-66.777 -271.536)" fill="#263238"/>
      <path id="Path_13567" data-name="Path 13567" d="M82.894,292.391l-2.484-2.674.8-.749,1.715,1.846,3.6-3.544.773.783Z" transform="translate(-75.706 -281.841)" fill="#263238"/>
    </g>
    <g id="freepik--Tickets--inject-2" transform="translate(73.072 106.779)">
      <rect id="Rectangle_1126" data-name="Rectangle 1126" width="22.453" height="52.434" rx="8.91" transform="matrix(0.772, -0.635, 0.635, 0.772, 0, 42.722)" fill="#fff"/>
      <path id="Path_13568" data-name="Path 13568" d="M106.566,194a.97.97,0,0,1-.069-.069c-.045-.041-.1-.114-.193-.2a3.05,3.05,0,0,0-3.689-.383,11.222,11.222,0,0,0-1.011.794L89.679,204a3.012,3.012,0,0,0-.873,3.378,3.537,3.537,0,0,0,.69,1.094l3.537,4.292,7.788,9.472,17.863,21.714a3.367,3.367,0,0,0,.669.6,3.267,3.267,0,0,0,.821.373,2.978,2.978,0,0,0,1.77-.045,4.524,4.524,0,0,0,1.5-.983l1.411-1.159,5.535-4.551,2.7-2.219c.445-.369.89-.732,1.332-1.094l.659-.545a8.3,8.3,0,0,0,.638-.549,3,3,0,0,0,.69-3.026,3.105,3.105,0,0,0-.345-.721c-.152-.214-.345-.428-.507-.638l-1.035-1.259L119.96,210.382l-9.81-11.977-2.66-3.261-.69-.852c-.155-.193-.228-.293-.228-.293s.083.093.242.283l.69.838c.614.745,1.522,1.836,2.685,3.24l9.855,11.942,14.6,17.725,1.035,1.259c.173.214.345.418.514.652a3.243,3.243,0,0,1,.376.759,3.178,3.178,0,0,1-.725,3.2,8.215,8.215,0,0,1-.649.562l-.659.538-1.332,1.1-2.7,2.219-5.542,4.558-1.411,1.163c-.242.19-.462.39-.721.576a2.985,2.985,0,0,1-.838.435,3.14,3.14,0,0,1-1.877.048,3.351,3.351,0,0,1-.87-.393,3.6,3.6,0,0,1-.714-.642l-17.85-21.738-7.788-9.485-3.52-4.282a3.657,3.657,0,0,1-.714-1.132,3.167,3.167,0,0,1-.2-1.3,3.126,3.126,0,0,1,1.118-2.226l11.98-9.813a11.267,11.267,0,0,1,1.035-.794,3.105,3.105,0,0,1,2.823-.186,3.026,3.026,0,0,1,.907.611,3.447,3.447,0,0,1,.242.279Z" transform="translate(-87.27 -163.154)" fill="#263238"/>
      <path id="Path_13569" data-name="Path 13569" d="M88.8,224.49l11.711,14.189,21.669,26.248-1.035.825a2.312,2.312,0,0,1-3.23-.345L87.59,228.51a2.395,2.395,0,0,1,.438-3.451Z" transform="translate(-86.348 -183.874)" fill="#2e61e6"/>
      <line id="Line_27" data-name="Line 27" y1="12.377" x2="14.692" transform="translate(14.04 42.428)" fill="#fff"/>
      <path id="Path_13570" data-name="Path 13570" d="M140.4,229.739c.031.038-3.23,2.84-7.287,6.256s-7.37,6.159-7.4,6.121,3.233-2.84,7.291-6.259S140.371,229.7,140.4,229.739Z" transform="translate(-111.669 -187.311)" fill="#263238"/>
      <circle id="Ellipse_5061" data-name="Ellipse 5061" cx="6.573" cy="6.573" r="6.573" transform="translate(6.223 42.51) rotate(-47.24)" fill="#fff"/>
      <path id="Path_13571" data-name="Path 13571" d="M118.7,209.981a.5.5,0,0,1-.107,0l-.311-.045a3.616,3.616,0,0,0-.5-.048,4.51,4.51,0,0,0-.69,0,6.262,6.262,0,0,0-1.849.345,6.584,6.584,0,0,0-2.16,1.228,6.508,6.508,0,0,0-2.219,5.811,6.1,6.1,0,0,0,.514,1.794,5.79,5.79,0,0,0,1.035,1.632,6.459,6.459,0,0,0,7.488,1.646,7.2,7.2,0,0,0,.87-.459,6.852,6.852,0,0,0,.769-.587,6.118,6.118,0,0,0,1.218-1.411,6.528,6.528,0,0,0-1.035-8.226,6.283,6.283,0,0,0-1.535-1.087,5.251,5.251,0,0,0-.631-.283,3.8,3.8,0,0,0-.476-.166l-.3-.09a.417.417,0,0,1-.1-.038.383.383,0,0,1,.1.021l.307.072a3.138,3.138,0,0,1,.487.152,4.613,4.613,0,0,1,.642.269,6.19,6.19,0,0,1,1.573,1.077,6.578,6.578,0,0,1,1.083,8.385,6.21,6.21,0,0,1-1.242,1.456,7.209,7.209,0,0,1-.79.6,6.9,6.9,0,0,1-.894.473,6.618,6.618,0,0,1-7.691-1.687,6.629,6.629,0,0,1-1.594-3.523,6.607,6.607,0,0,1,4.506-7.153,6.063,6.063,0,0,1,1.884-.317,4.366,4.366,0,0,1,.69.024,2.946,2.946,0,0,1,.507.066l.307.059Z" transform="translate(-101.779 -174.264)" fill="#263238"/>
      <path id="Path_13572" data-name="Path 13572" d="M114.784,218.833s-.228.859,1.159,1.035l1.439.19,1.87,4.486.69.038.041-4.165,3.8.055.942.659.266-2.322-1,.5-3.8-.728.707-4-.662-.148-2.76,3.965-1.256-.224S115.015,217.777,114.784,218.833Z" transform="translate(-104.505 -177.291)" fill="#2e61e6"/>
      <path id="Path_13573" data-name="Path 13573" d="M138.8,108.629l24.119,55.736a3.071,3.071,0,0,1-1.6,4.041l-20.641,8.933a3.071,3.071,0,0,1-4.041-1.6L112.52,120.005a3.074,3.074,0,0,1,1.6-4.041l20.641-8.933A3.074,3.074,0,0,1,138.8,108.629Z" transform="translate(-102.866 -106.779)" fill="#455a64"/>
      <path id="Path_13574" data-name="Path 13574" d="M146.6,148.041a8.571,8.571,0,1,1,2.457-.345A8.571,8.571,0,0,1,146.6,148.041Zm.028-16.77a2.069,2.069,0,1,1,0,.007Z" transform="translate(-119.772 -122.576)" fill="#e0e0e0"/>
      <path id="Path_13575" data-name="Path 13575" d="M144.73,141.451s-.58.973,1.052,1.694l1.7.738.728,6.152.838.29,1.5-5.079,4.627,1.38.921,1.139,1.146-2.76-1.4.269-4.379-2.222,2.27-4.641L152.97,138l-4.762,3.892-1.46-.718S145.386,140.236,144.73,141.451Z" transform="translate(-124.062 -127.227)" fill="#e0e0e0"/>
      <rect id="Rectangle_1127" data-name="Rectangle 1127" width="28.643" height="0.345" transform="matrix(0.912, -0.409, 0.409, 0.912, 19.489, 35.979)" fill="#e0e0e0"/>
    </g>
    <g id="freepik--Passport--inject-2" transform="translate(124.011 148.39)">
      <rect id="Rectangle_1128" data-name="Rectangle 1128" width="40.989" height="56.754" rx="11.49" transform="matrix(0.952, 0.306, -0.306, 0.952, 17.368, 0)" fill="#263238"/>
      <path id="Path_13576" data-name="Path 13576" d="M308.382,342.959a12.954,12.954,0,0,1-2.415-.235A12.222,12.222,0,0,1,296.1,328.56a11.763,11.763,0,0,1,5.176-7.66,12.639,12.639,0,0,1,17.187,3.333,11.787,11.787,0,0,1,1.943,9.04l-.169-.031.169.031A12.156,12.156,0,0,1,308.382,342.959Zm-.3-23.74a12.077,12.077,0,0,0-6.625,1.97,11.428,11.428,0,0,0-5.031,7.436,11.872,11.872,0,0,0,9.592,13.757,12.292,12.292,0,0,0,2.36.231,11.8,11.8,0,0,0,11.68-9.406h0a11.435,11.435,0,0,0-1.887-8.768,12.139,12.139,0,0,0-7.705-4.979,12.459,12.459,0,0,0-2.384-.242Z" transform="translate(-279.657 -297.498)" fill="#2e61e6"/>
      <path id="Path_13577" data-name="Path 13577" d="M310.225,346.171a12.422,12.422,0,0,1-4.165-.735c-9-3.161-8.678-12.632-8.675-12.725v-.055l.035-.041c.055-.072,5.617-7.3,14.434-4.141a13.767,13.767,0,0,1,9.175,11.887v.059l-.035.048C320.95,340.553,316.833,346.171,310.225,346.171Zm-12.5-13.391c0,.763.041,9.382,8.447,12.332s14.013-4.141,14.492-4.793a13.423,13.423,0,0,0-8.944-11.518C303.518,325.854,298.2,332.193,297.728,332.779Z" transform="translate(-280.638 -303.26)" fill="#2e61e6"/>
      <path id="Path_13578" data-name="Path 13578" d="M313.61,349.513a16.7,16.7,0,0,1-5.78-1.121c-9.624-3.54-10.113-8.305-10.131-8.506v-.1l.083-.055c.048-.035,5.055-3.423,13.04-.6s9.848,7.37,9.924,7.564l.038.1-.069.079A9.64,9.64,0,0,1,313.61,349.513Zm-15.551-9.554c.131.69,1.256,4.934,9.889,8.109,7.874,2.895,11.853-.752,12.422-1.342-.321-.69-2.5-4.727-9.661-7.27C303.459,336.894,298.752,339.527,298.059,339.958Z" transform="translate(-280.845 -310.029)" fill="#2e61e6"/>
      <rect id="Rectangle_1129" data-name="Rectangle 1129" width="0.345" height="23.881" transform="matrix(0.309, -0.951, 0.951, 0.309, 16.974, 30.007)" fill="#2e61e6"/>
      <path id="Path_13579" data-name="Path 13579" d="M311.5,343.5a6.247,6.247,0,0,1-.825-.041l-.066-.021c-.079-.048-7.9-4.831-4.641-13.626,1.884-5.093,5.038-7.346,7.353-8.336a10.866,10.866,0,0,1,4.634-.942H318l.041.031c.079.059,7.75,6.083,4.272,14.968-1.815,4.638-4.883,6.556-7.136,7.332A11.429,11.429,0,0,1,311.5,343.5Zm-.742-.38c.576.059,7.981.621,11.242-7.712s-3.52-14.047-4.12-14.534c-.69-.028-8.219-.052-11.59,9.058C303.231,338.193,310.225,342.778,310.753,343.123Z" transform="translate(-285.737 -298.584)" fill="#2e61e6"/>
      <path id="Path_13580" data-name="Path 13580" d="M316.689,343.439l-.052-.055c-.041-.041-4.072-4.417-1.17-12.391,3.35-9.213,8.281-10.431,8.5-10.479l.1-.024.069.083c.035.045,3.668,4.651.69,13.033-3.451,9.661-7.871,9.831-8.06,9.834Zm7.246-22.56c-.731.235-5.134,1.946-8.147,10.231a13.792,13.792,0,0,0-.518,8.971,8.747,8.747,0,0,0,1.56,2.992c.59-.072,4.548-.866,7.66-9.6a16.342,16.342,0,0,0,.8-9.454,9.371,9.371,0,0,0-1.353-3.143Z" transform="translate(-291.794 -298.555)" fill="#2e61e6"/>
      <rect id="Rectangle_1130" data-name="Rectangle 1130" width="23.719" height="0.345" transform="translate(24.796 44.645) rotate(-72.26)" fill="#2e61e6"/>
      <rect id="Rectangle_1131" data-name="Rectangle 1131" width="7.294" height="1.021" transform="matrix(0.952, 0.306, -0.306, 0.952, 20.22, 49.214)" fill="#fff"/>
      <path id="Path_13581" data-name="Path 13581" d="M263.749,316.151c-.048-.017,3.947-12.077,8.923-26.938s9.051-26.914,9.1-26.883-3.951,12.077-8.927,26.938S263.794,316.165,263.749,316.151Z" transform="translate(-258.608 -260.463)" fill="#263238"/>
      <rect id="Rectangle_1132" data-name="Rectangle 1132" width="22.301" height="1.849" transform="matrix(0.952, 0.306, -0.306, 0.952, 23.644, 11.013)" fill="#fff"/>
    </g>
  </g>
</svg>
