<svg xmlns="http://www.w3.org/2000/svg" width="41" height="41" viewBox="0 0 41 41">
  <g id="Group_5385" data-name="Group 5385" transform="translate(-587 -6357)">
    <circle id="Ellipse_534" data-name="Ellipse 534" cx="20.5" cy="20.5" r="20.5" transform="translate(587 6357)" fill="#171b4a" opacity="0.1"/>
    <g id="Icon_feather-instagram" data-name="Icon feather-instagram" transform="translate(595.75 6365.75)">
      <path id="Path_7065" data-name="Path 7065" d="M7.375,3h8.75A4.375,4.375,0,0,1,20.5,7.375v8.75A4.375,4.375,0,0,1,16.125,20.5H7.375A4.375,4.375,0,0,1,3,16.125V7.375A4.375,4.375,0,0,1,7.375,3Z" fill="none" stroke="#171b4a" stroke-linecap="round" stroke-linejoin="round" stroke-width="2"/>
      <path id="Path_7066" data-name="Path 7066" d="M19.027,14.922a3.5,3.5,0,1,1-2.949-2.949,3.5,3.5,0,0,1,2.949,2.949Z" transform="translate(-3.777 -3.723)" fill="none" stroke="#171b4a" stroke-linecap="round" stroke-linejoin="round" stroke-width="2"/>
      <path id="Path_7067" data-name="Path 7067" d="M26.25,9.75h0" transform="translate(-9.688 -2.813)" fill="none" stroke="#171b4a" stroke-linecap="round" stroke-linejoin="round" stroke-width="2"/>
    </g>
  </g>
</svg>
