<svg xmlns="http://www.w3.org/2000/svg" width="117.155" height="115.071" viewBox="0 0 117.155 115.071">
  <g id="Pina_colada-bro" data-name="Pina colada-bro" transform="translate(-11.81 -12.18)">
    <g id="freepik--Floor--inject-32" transform="translate(14.08 124.589)">
      <line id="Line_3" data-name="Line 3" x1="112.929" fill="none" stroke="#263238" stroke-linecap="round" stroke-linejoin="round" stroke-width="1"/>
    </g>
    <g id="freepik--Plants--inject-32" transform="translate(11.81 12.18)">
      <path id="Path_13341" data-name="Path 13341" d="M49.316,41.764c-1.108-1.328-11.7-11.679-14.087-13.412s-12.342-7.981-12.342-7.981a42.1,42.1,0,0,1,4.723,1.368c1.613.653,19.1,5.131,19.1,5.131L22.092,17.193l8.381-.82,7.281-.715a46.022,46.022,0,0,0-8.409-2,27.629,27.629,0,0,0-9.016.953c.25-.19.5-.36.68-.473.808-.48,6.213-.88,6.213-.88a65.809,65.809,0,0,0-6.536-1.048,16.234,16.234,0,0,0-4.358,1.37l-2.18.328S11.81,23.352,11.81,25.449s.4,6.779.4,6.779,1.533-7.671,1.7-8.569,1.048-4.2,1.048-4.2-.725,5.086-.808,8.071-.25,7.666-.323,9.2,2.5-11.539,2.5-11.539.565-2.25.725-2.663h0l-.488,1.863-1.455,8.961,2.375,12.159s.263-6.041-.25-7.461,1.943-12.6,1.943-12.6,1.3,10.3.9,11.562,5.786,14.1,5.786,14.1l-1.588-6.353-1.288-16s2.135,9.869,2.655,11.289,9.634,19.5,9.634,19.5S31.61,47.518,30.658,45.265s-2.048-9.284-2.048-9.284l5.9,8.984L42.685,68.6l-1.953-8.7-3.11-14.217-7.706-12.9,9.959,11.954L47.79,60.915s-6.118-20.05-8.251-22.121-11.9-12.852-11.9-12.852l6.276,5.626S50.421,43.092,49.316,41.764Z" transform="translate(-11.81 -12.202)" opacity="0.2"/>
      <path id="Path_13342" data-name="Path 13342" d="M330.2,41.742c1.108-1.328,11.717-11.679,14.087-13.412s12.342-7.981,12.342-7.981a41.536,41.536,0,0,0-4.713,1.368c-1.6.653-19.1,5.131-19.1,5.131l24.609-9.676-8.384-.82-7.281-.715a46.078,46.078,0,0,1,8.411-2,27.63,27.63,0,0,1,9.016.953c-.25-.19-.5-.36-.68-.473-.808-.483-6.213-.888-6.213-.888a65.684,65.684,0,0,1,6.536-1.048,16.2,16.2,0,0,1,4.358,1.37l2.178.335s2.34,9.444,2.34,11.542-.4,6.779-.4,6.779-1.533-7.671-1.688-8.569-1.048-4.2-1.048-4.2.725,5.086.805,8.071.25,7.666.323,9.2-2.5-11.539-2.5-11.539-.565-2.25-.728-2.663h0l.488,1.863,1.453,8.959L362.03,45.487s-.25-6.041.25-7.461-1.94-12.6-1.94-12.6-1.3,10.3-.9,11.562-5.793,14.1-5.793,14.1l1.59-6.353,1.288-16s-2.135,9.869-2.655,11.289-9.634,19.5-9.634,19.5,3.671-12.029,4.621-14.282,2.043-9.284,2.043-9.284L345,44.94l-8.176,23.633,1.953-8.7,3.11-14.217,7.706-12.9-9.959,11.954-7.914,16.185s6.118-20.05,8.251-22.121,11.887-12.864,11.887-12.864l-6.273,5.626S329.092,43.07,330.2,41.742Z" transform="translate(-250.551 -12.18)" opacity="0.2"/>
    </g>
    <g id="freepik--pina-colada--inject-32" transform="translate(77.525 40.654)">
      <path id="Path_13343" data-name="Path 13343" d="M380.021,177.24a2.845,2.845,0,0,1-.985-2.168c-.148-1.625,1.775-2.808,3.451-2.463s3.448,1.378,2.955,3.7-3.108,2.448-3.918,2.085A5.161,5.161,0,0,1,380.021,177.24Z" transform="translate(-352.925 -160.925)" fill="#263238" stroke="#263238" stroke-linecap="round" stroke-linejoin="round" stroke-width="1"/>
      <path id="Path_13344" data-name="Path 13344" d="M386.2,176.307s1.035-.935,1.725-.69" transform="translate(-358.303 -163.195)" fill="none" stroke="#263238" stroke-linecap="round" stroke-linejoin="round" stroke-width="1"/>
      <path id="Path_13345" data-name="Path 13345" d="M396.029,176.775a.473.473,0,1,1-.468-.408A.44.44,0,0,1,396.029,176.775Z" transform="translate(-364.969 -163.787)" fill="#fff" stroke="#263238" stroke-linecap="round" stroke-linejoin="round" stroke-width="1"/>
      <path id="Path_13346" data-name="Path 13346" d="M381.973,177.935c0,.148-.163.265-.365.265s-.368-.118-.368-.265.165-.265.368-.265S381.973,177.79,381.973,177.935Z" transform="translate(-354.584 -164.765)" fill="#fff" stroke="#263238" stroke-linecap="round" stroke-linejoin="round" stroke-width="1"/>
      <path id="Path_13347" data-name="Path 13347" d="M394.121,159.373a2.845,2.845,0,0,1-.985-2.168c-.148-1.625,1.773-2.81,3.448-2.465s3.451,1.38,2.958,3.7-3.111,2.448-3.921,2.088A5.174,5.174,0,0,1,394.121,159.373Z" transform="translate(-363.499 -147.523)" fill="#263238" stroke="#263238" stroke-linecap="round" stroke-linejoin="round" stroke-width="1"/>
      <path id="Path_13348" data-name="Path 13348" d="M400.25,158.445s1.035-.938,1.725-.69" transform="translate(-368.84 -149.798)" fill="none" stroke="#263238" stroke-linecap="round" stroke-linejoin="round" stroke-width="1"/>
      <ellipse id="Ellipse_5058" data-name="Ellipse 5058" cx="0.47" cy="0.408" rx="0.47" ry="0.408" transform="translate(33.635 8.112)" fill="#fff" stroke="#263238" stroke-linecap="round" stroke-linejoin="round" stroke-width="1"/>
      <path id="Path_13349" data-name="Path 13349" d="M396.025,160.075c0,.145-.165.265-.368.265s-.368-.12-.368-.265.165-.265.368-.265S396.025,159.928,396.025,160.075Z" transform="translate(-365.121 -151.371)" fill="#fff" stroke="#263238" stroke-linecap="round" stroke-linejoin="round" stroke-width="1"/>
      <path id="Path_13350" data-name="Path 13350" d="M420.713,130.444a.535.535,0,0,1-.318-.1.548.548,0,0,1-.13-.765l2.358-3.308a.55.55,0,0,1,.9.638l-2.348,3.305A.547.547,0,0,1,420.713,130.444Z" transform="translate(-383.775 -126.058)" fill="#fff" stroke="#263238" stroke-linecap="round" stroke-linejoin="round" stroke-width="1"/>
      <path id="Path_13351" data-name="Path 13351" d="M372.148,129.058,354.29,126.72l27.6,14.862Z" transform="translate(-334.372 -126.554)" fill="#2e61e6" stroke="#263238" stroke-linecap="round" stroke-linejoin="round" stroke-width="1"/>
      <line id="Line_4" data-name="Line 4" x1="8.409" y1="0.043" transform="translate(28.782 2.846)" fill="none" stroke="#263238" stroke-linecap="round" stroke-linejoin="round" stroke-width="1"/>
      <line id="Line_5" data-name="Line 5" x1="1.29" y2="1.198" transform="translate(35.475 3.751)" fill="none" stroke="#263238" stroke-linecap="round" stroke-linejoin="round" stroke-width="1"/>
      <line id="Line_6" data-name="Line 6" x2="1.675" y2="2.83" transform="translate(38.006 3.534)" fill="none" stroke="#263238" stroke-linecap="round" stroke-linejoin="round" stroke-width="1"/>
      <line id="Line_7" data-name="Line 7" x2="1.803" y2="3.476" transform="translate(40.023 7.309)" fill="none" stroke="#263238" stroke-linecap="round" stroke-linejoin="round" stroke-width="1"/>
      <line id="Line_8" data-name="Line 8" y1="0.815" x2="2.445" transform="translate(29.639 4.476)" fill="none" stroke="#263238" stroke-linecap="round" stroke-linejoin="round" stroke-width="1"/>
      <line id="Line_9" data-name="Line 9" x2="5.663" y2="0.643" transform="translate(21.231 0.831)" fill="none" stroke="#263238" stroke-linecap="round" stroke-linejoin="round" stroke-width="1"/>
      <line id="Line_10" data-name="Line 10" x1="2.318" y1="3.303" transform="translate(42.941 10.527)" fill="none" stroke="#263238" stroke-linecap="round" stroke-linejoin="round" stroke-width="1"/>
      <path id="Path_13352" data-name="Path 13352" d="M334,186.411l5.9,18.373L355.476,193a8.282,8.282,0,0,0-2.043-2.193,3.561,3.561,0,0,0-2.57-.53l-.225-1.058a19.307,19.307,0,0,0-2.723-1.513c-1.135-.453-2.645-1.133-2.873-.905a.965.965,0,0,1-.605.225,4.887,4.887,0,0,0-.908-.983,29.769,29.769,0,0,0-4.536-.378,2.985,2.985,0,0,0-1.89.605s-.75-.605-1.133-.605A10.779,10.779,0,0,0,334,186.411Z" transform="translate(-319.155 -170.761)" fill="#2e61e6" stroke="#263238" stroke-linecap="round" stroke-linejoin="round" stroke-width="1"/>
      <path id="Path_13353" data-name="Path 13353" d="M343.776,188.124a29.8,29.8,0,0,0-4.536-.378,2.985,2.985,0,0,0-1.89.605s-.75-.605-1.135-.605a7.984,7.984,0,0,0-1.685.625l5.768,17.973,15.24-11.534a7.91,7.91,0,0,0-1.858-1.915,3.563,3.563,0,0,0-2.57-.53l-.228-1.058a19.111,19.111,0,0,0-2.72-1.513c-1.135-.453-2.648-1.135-2.873-.908a.958.958,0,0,1-.605.228A4.816,4.816,0,0,0,343.776,188.124Z" transform="translate(-319.553 -172.321)" fill="#fff" stroke="#263238" stroke-linecap="round" stroke-linejoin="round" stroke-width="1"/>
      <line id="Line_11" data-name="Line 11" x1="1.478" y2="1.668" transform="translate(32.65 20.566)" fill="#fff" stroke="#263238" stroke-linecap="round" stroke-linejoin="round" stroke-width="1"/>
      <line id="Line_12" data-name="Line 12" x1="0.52" y2="0.678" transform="translate(29.909 23.814)" fill="#fff" stroke="#263238" stroke-linecap="round" stroke-linejoin="round" stroke-width="1"/>
      <line id="Line_13" data-name="Line 13" x1="1" y2="1.305" transform="translate(30.762 22.074)" fill="#fff" stroke="#263238" stroke-linecap="round" stroke-linejoin="round" stroke-width="1"/>
      <line id="Line_14" data-name="Line 14" x1="0.198" y2="0.635" transform="translate(25.394 18.778)" fill="#fff" stroke="#263238" stroke-linecap="round" stroke-linejoin="round" stroke-width="1"/>
      <line id="Line_15" data-name="Line 15" x1="0.318" y2="1.025" transform="translate(25.801 17.076)" fill="#fff" stroke="#263238" stroke-linecap="round" stroke-linejoin="round" stroke-width="1"/>
      <line id="Line_16" data-name="Line 16" x2="0.503" y2="2.738" transform="translate(17.798 16.03)" fill="#fff" stroke="#263238" stroke-linecap="round" stroke-linejoin="round" stroke-width="1"/>
      <line id="Line_17" data-name="Line 17" x2="0.243" y2="2.255" transform="translate(19.105 17.641)" fill="#fff" stroke="#263238" stroke-linecap="round" stroke-linejoin="round" stroke-width="1"/>
      <path id="Path_13354" data-name="Path 13354" d="M284.191,171.437l-2.128.54-.3-1.193-.523-2.058-.955-3.773-.518-2.058-.955-3.773-.518-2.058-.958-3.776-.52-2.055-.953-3.776-.52-2.055-.715-2.825,2.13-.538.2.8.52,2.058.955,3.773.52,2.058.953,3.776.52,2.055.955,3.776.52,2.058.953,3.773.52,2.055Z" transform="translate(-274.63 -138.044)" fill="#2e61e6" stroke="#263238" stroke-linecap="round" stroke-linejoin="round" stroke-width="1"/>
      <path id="Path_13355" data-name="Path 13355" d="M282.056,156.882l-1.615,2.56.518,2.058,1.618-2.563Zm-1.473-5.833-1.62,2.563.52,2.055,1.62-2.56Zm2.948,11.664-1.618,2.56.518,2.058,1.62-2.56Zm-4.423-17.5-1.618,2.563.52,2.055,1.608-2.553Zm4.281,25.886,1.615-2.56.52,2.055-1.615,2.57Z" transform="translate(-276.775 -140.421)" fill="#263238"/>
      <path id="Path_13356" data-name="Path 13356" d="M305.076,272.354H280.757s-.228-.68,1.135-1.058,7.331-2.573,7.936-3.478.833-.908.605-1.815-1.663-2.5-1.285-3.7a18.571,18.571,0,0,0,1.135-3.25,3.268,3.268,0,0,0-.228-1.59,16.332,16.332,0,0,1-2.425-1.675c-2.335-1.905-5.548-5.431-5.751-10.5-.3-8.014,3.931-17.463,2.418-25.551s-3.4-9.6-2.645-10.5h22.5c.75.908-1.135,2.42-2.645,10.5s2.72,17.538,2.418,25.551c-.19,5.066-3.4,8.591-5.751,10.5a16.488,16.488,0,0,1-2.425,1.675,3.268,3.268,0,0,0-.228,1.59,18.371,18.371,0,0,0,1.135,3.25c.385,1.21-1.058,2.8-1.285,3.7s0,.908.605,1.815,6.576,3.1,7.939,3.478S305.076,272.354,305.076,272.354Z" transform="translate(-279.215 -188.434)" fill="none" stroke="#263238" stroke-linecap="round" stroke-linejoin="round" stroke-width="1"/>
      <path id="Path_13357" data-name="Path 13357" d="M305.076,411.99H280.757s-.228-.68,1.135-1.058,7.331-2.573,7.936-3.478.833-.908.605-1.815-1.663-2.5-1.285-3.7a18.57,18.57,0,0,0,1.135-3.25,3.268,3.268,0,0,0-.228-1.59,16.328,16.328,0,0,1-2.425-1.675H298.2a16.484,16.484,0,0,1-2.425,1.675,3.268,3.268,0,0,0-.228,1.59,18.371,18.371,0,0,0,1.135,3.25c.385,1.21-1.058,2.8-1.285,3.7s0,.908.605,1.815,6.576,3.1,7.939,3.478S305.076,411.99,305.076,411.99Z" transform="translate(-279.215 -328.069)" fill="#e0e0e0" stroke="#263238" stroke-linecap="round" stroke-linejoin="round" stroke-width="1"/>
      <path id="Path_13358" data-name="Path 13358" d="M295.335,449.834a21.421,21.421,0,0,1-3.783,1.573c-1.828.5-.25.893,1.445.34s1.785-.978,3.571-.978.985-.773.088-.728S295.8,449.536,295.335,449.834Z" transform="translate(-286.708 -368.811)" fill="#fff"/>
      <path id="Path_13359" data-name="Path 13359" d="M325.858,404.408s-3.43.6-2.78.5,1.75.523,3.06.25a2.79,2.79,0,0,1,.65,1.675c.1,1.118-2.418.28-3.443,2.328s.75,2.233,1.5,2.79.93,1.025.185,1.5-1.173-1.153-1.86-.465.372,1.488,1.023,1.488,1.955-.278,2.14-1.4,1.3-2.233,1.4-3.908a7.251,7.251,0,0,0-.148-1.93c-.222-.98-.845-1.558-.845-2.405S326.191,404.263,325.858,404.408Z" transform="translate(-310.866 -334.689)" fill="#b8b8b8"/>
      <path id="Path_13360" data-name="Path 13360" d="M299.212,446.29a.615.615,0,0,1-.375.83c-.62.25-6.716.33-6.716.33a35.849,35.849,0,0,0,6.251.25c2.228-.25,1.5-.83,2.073-.623s1.368.83.788,1.328.29.953-4.063.29-5.6.04-6.426.455-6.053.75-6.053.75h22.388a2.6,2.6,0,0,0-1.533-.83c-1.118-.25-1.328.165-2.158,0s-.33-.25-.538-.75S299.212,446.29,299.212,446.29Z" transform="translate(-282.175 -366.22)" fill="#b8b8b8"/>
      <path id="Path_13361" data-name="Path 13361" d="M321.119,409.216s-.735-.075-1.655-.185-1.915,2.725-1.768,3.278.663-.7,1.73-1.215,2.25.11,2.393-1.068S321.119,409.216,321.119,409.216Z" transform="translate(-306.917 -338.275)" fill="#fff"/>
      <path id="Path_13362" data-name="Path 13362" d="M322.19,432.12s-1.618-1.73-1.84-.735,2.393,2.393,2.5,1.693S322.19,432.12,322.19,432.12Z" transform="translate(-308.908 -354.81)" fill="#fff"/>
      <path id="Path_13363" data-name="Path 13363" d="M319.965,444.688a3.936,3.936,0,0,1-2.168.085c-.85-.34-1.02-.17-1.87.3s-.425.85,2.125.765,3.953-.553,3.613-.893S321.41,444.221,319.965,444.688Z" transform="translate(-305.302 -364.856)" fill="#fff"/>
      <line id="Line_18" data-name="Line 18" x2="14.902" transform="translate(5.163 21.396)" fill="none" stroke="#263238" stroke-linecap="round" stroke-linejoin="round" stroke-width="1"/>
      <line id="Line_19" data-name="Line 19" x2="1.448" transform="translate(3.055 21.396)" fill="none" stroke="#263238" stroke-linecap="round" stroke-linejoin="round" stroke-width="1"/>
      <path id="Path_13364" data-name="Path 13364" d="M304.914,241.715c.225-1.2.458-2.25.688-3.175H287.016c.233.93.463,1.98.688,3.175,1.513,8.091-2.723,17.54-2.42,25.554s8.169,12.172,8.169,12.172a21.371,21.371,0,0,0,5.718,0s7.864-4.158,8.166-12.172S303.4,249.807,304.914,241.715Z" transform="translate(-282.608 -210.415)" fill="#fff" stroke="#263238" stroke-linecap="round" stroke-linejoin="round" stroke-width="1"/>
      <path id="Path_13365" data-name="Path 13365" d="M338.592,272.577c-1.36-.375-7.331-2.548-7.936-3.446s-.833-.9-.605-1.8,1.663-2.47,1.285-3.668a18.485,18.485,0,0,1-1.135-3.22,3.2,3.2,0,0,1,.228-1.573,16.592,16.592,0,0,0,2.425-1.66c2.335-1.888,5.548-5.381,5.751-10.4.3-7.936-3.931-17.3-2.418-25.311s3.4-9.5,2.645-10.412h1.38c.75.9-1.135,2.4-2.645,10.412s2.708,17.385,2.408,25.321c-.19,5.018-3.4,8.5-5.738,10.4a16.593,16.593,0,0,1-2.425,1.66,3.2,3.2,0,0,0-.228,1.573,17.818,17.818,0,0,0,1.135,3.22c.385,1.2-1.06,2.77-1.285,3.668s0,.9.605,1.8,6.576,3.07,7.936,3.436,1.135,1.05,1.135,1.05h-1.385S339.954,272.959,338.592,272.577Z" transform="translate(-316.128 -189.829)" opacity="0.19"/>
    </g>
    <g id="freepik--Pineapple--inject-32" transform="translate(43.047 27.406)">
      <path id="Path_13366" data-name="Path 13366" d="M153.2,121.562a4.5,4.5,0,0,0-2.653-1.75,11.845,11.845,0,0,0-3.363.193,5.745,5.745,0,0,1,1.358-1.75,15.618,15.618,0,0,1,1.553-.775,4.45,4.45,0,0,0-1.553-1.75c-1.1-.71-2.913-1.81-2.913-1.81a24,24,0,0,1,3.431.518,12.715,12.715,0,0,1,2.33,1.035s-1.683-1.813-3.043-3.105-4.206-3.691-4.206-3.691L142,107.31a41.466,41.466,0,0,1,4.148,1.5,59.361,59.361,0,0,1,5.566,3.3s-1.618-2.725-3.365-5.051a42.326,42.326,0,0,0-5.306-5.308l7.571,5.751-3.04-4.853-1.3-1.3s3.235,1.75,4.271,3.105,3.561,4.271,3.561,4.271-3.3-10.222-4.788-12.617a32.473,32.473,0,0,0-3.948-4.853,51.739,51.739,0,0,1,5.306,2.07,5.219,5.219,0,0,1,1.618,1.23,20.967,20.967,0,0,0-2.07-6.276c-1.683-3.558-2.46-5.436-2.46-5.436a15.33,15.33,0,0,1,4.4,4.536c1.415,2.578,3.3,6.673,3.3,6.673s-2-10.937-2.975-13a46.382,46.382,0,0,0-2.913-4.916s4.788,3.688,5.751,8.024l.97,4.333s-.9-4.928-1.548-9.134-.775-6.083-.775-6.278a16.853,16.853,0,0,1,2.653,4.206,23.707,23.707,0,0,1,1.553,5.251,44.111,44.111,0,0,1,.323-4.466c.453-2.135.843-3.366.908-3.751a35.41,35.41,0,0,1,1.035,6.989c.2,3.238.128,8.024.128,8.024s2.2-4.466,2.653-5.566,1.36-2.25,1.425-2.523a43.577,43.577,0,0,1-.9,5.618c-.583,2.4-.84,3.431-.84,3.431l.065,1.683s4-7.5,5.5-9.836a21.315,21.315,0,0,1,4-4.336,50.789,50.789,0,0,1-2,6.343,55.665,55.665,0,0,1-4.531,9.639c-.453.713-1.1,2-1.293,2.4a15.344,15.344,0,0,0,.128,3.105s3.5-2.07,6.213-3.366a39.491,39.491,0,0,1,7.7-2.2s-5.951,2.393-7.829,4.271-5.823,4.981-5.823,4.981l.065,2.783a49.319,49.319,0,0,1,7.829-4.918,21.449,21.449,0,0,1,5.436-1.618l-8.346,5.833c-2.135,1.488-4.6,3.431-4.6,3.431s5.178-2.523,9.319-2.653c0,0-7.251,4.528-7.959,5.563s-1.813,2.2-1.943,2.4,3.365-1.165,5.371-1.683a36.732,36.732,0,0,1,4.206-.778,18.77,18.77,0,0,0-5.751,2.59c-3.04,2-4.223,2.415-4.538,2.793l-.315.378s6.666-2.4,8.284-2.783a10.169,10.169,0,0,1,3.363-.13s-4.576.7-6.688,2.75-4.891,4.651-7.9,4.481-4.691-.17-5.273-.235A12.312,12.312,0,0,0,153.2,121.562Z" transform="translate(-140.684 -73.073)" fill="#2e61e6" stroke="#263238" stroke-width="1"/>
      <path id="Path_13367" data-name="Path 13367" d="M153.2,121.562a4.5,4.5,0,0,0-2.653-1.75,11.845,11.845,0,0,0-3.363.193,5.745,5.745,0,0,1,1.358-1.75,15.618,15.618,0,0,1,1.553-.775,4.45,4.45,0,0,0-1.553-1.75c-1.1-.71-2.913-1.81-2.913-1.81a24,24,0,0,1,3.431.518,12.715,12.715,0,0,1,2.33,1.035s-1.683-1.813-3.043-3.105-4.206-3.691-4.206-3.691L142,107.31a41.466,41.466,0,0,1,4.148,1.5,59.361,59.361,0,0,1,5.566,3.3s-1.618-2.725-3.365-5.051a42.326,42.326,0,0,0-5.306-5.308l7.571,5.751-3.04-4.853-1.3-1.3s3.235,1.75,4.271,3.105,3.561,4.271,3.561,4.271-3.3-10.222-4.788-12.617a32.473,32.473,0,0,0-3.948-4.853,51.739,51.739,0,0,1,5.306,2.07,5.219,5.219,0,0,1,1.618,1.23,20.967,20.967,0,0,0-2.07-6.276c-1.683-3.558-2.46-5.436-2.46-5.436a15.33,15.33,0,0,1,4.4,4.536c1.415,2.578,3.3,6.673,3.3,6.673s-2-10.937-2.975-13a46.382,46.382,0,0,0-2.913-4.916s4.788,3.688,5.751,8.024l.97,4.333s-.9-4.928-1.548-9.134-.775-6.083-.775-6.278a16.853,16.853,0,0,1,2.653,4.206,23.707,23.707,0,0,1,1.553,5.251,44.111,44.111,0,0,1,.323-4.466c.453-2.135.843-3.366.908-3.751a35.41,35.41,0,0,1,1.035,6.989c.2,3.238.128,8.024.128,8.024s2.2-4.466,2.653-5.566,1.36-2.25,1.425-2.523a43.577,43.577,0,0,1-.9,5.618c-.583,2.4-.84,3.431-.84,3.431l.065,1.683s4-7.5,5.5-9.836a21.315,21.315,0,0,1,4-4.336,50.789,50.789,0,0,1-2,6.343,55.665,55.665,0,0,1-4.531,9.639c-.453.713-1.1,2-1.293,2.4a15.344,15.344,0,0,0,.128,3.105s3.5-2.07,6.213-3.366a39.491,39.491,0,0,1,7.7-2.2s-5.951,2.393-7.829,4.271-5.823,4.981-5.823,4.981l.065,2.783a49.319,49.319,0,0,1,7.829-4.918,21.449,21.449,0,0,1,5.436-1.618l-8.346,5.833c-2.135,1.488-4.6,3.431-4.6,3.431s5.178-2.523,9.319-2.653c0,0-7.251,4.528-7.959,5.563s-1.813,2.2-1.943,2.4,3.365-1.165,5.371-1.683a36.732,36.732,0,0,1,4.206-.778,18.77,18.77,0,0,0-5.751,2.59c-3.04,2-4.223,2.415-4.538,2.793l-.315.378s6.666-2.4,8.284-2.783a10.169,10.169,0,0,1,3.363-.13s-4.576.7-6.688,2.75-4.891,4.651-7.9,4.481-4.691-.17-5.273-.235A12.312,12.312,0,0,0,153.2,121.562Z" transform="translate(-140.684 -73.073)" stroke="#263238" stroke-width="1" opacity="0.2"/>
      <path id="Path_13368" data-name="Path 13368" d="M153.2,121.562a4.5,4.5,0,0,0-2.653-1.75,11.845,11.845,0,0,0-3.363.193,5.745,5.745,0,0,1,1.358-1.75,15.618,15.618,0,0,1,1.553-.775,4.45,4.45,0,0,0-1.553-1.75c-1.1-.71-2.913-1.81-2.913-1.81a24,24,0,0,1,3.431.518,12.715,12.715,0,0,1,2.33,1.035s-1.683-1.813-3.043-3.105-4.206-3.691-4.206-3.691L142,107.31a41.466,41.466,0,0,1,4.148,1.5,59.361,59.361,0,0,1,5.566,3.3s-1.618-2.725-3.365-5.051a42.326,42.326,0,0,0-5.306-5.308l7.571,5.751-3.04-4.853-1.3-1.3s3.235,1.75,4.271,3.105,3.561,4.271,3.561,4.271-3.3-10.222-4.788-12.617a32.473,32.473,0,0,0-3.948-4.853,51.739,51.739,0,0,1,5.306,2.07,5.219,5.219,0,0,1,1.618,1.23,20.967,20.967,0,0,0-2.07-6.276c-1.683-3.558-2.46-5.436-2.46-5.436a15.33,15.33,0,0,1,4.4,4.536c1.415,2.578,3.3,6.673,3.3,6.673s-2-10.937-2.975-13a46.382,46.382,0,0,0-2.913-4.916s4.788,3.688,5.751,8.024l.97,4.333s-.9-4.928-1.548-9.134-.775-6.083-.775-6.278a16.853,16.853,0,0,1,2.653,4.206,23.707,23.707,0,0,1,1.553,5.251,44.111,44.111,0,0,1,.323-4.466c.453-2.135.843-3.366.908-3.751a35.41,35.41,0,0,1,1.035,6.989c.2,3.238.128,8.024.128,8.024s2.2-4.466,2.653-5.566,1.36-2.25,1.425-2.523a43.577,43.577,0,0,1-.9,5.618c-.583,2.4-.84,3.431-.84,3.431l.065,1.683s4-7.5,5.5-9.836a21.315,21.315,0,0,1,4-4.336,50.789,50.789,0,0,1-2,6.343,55.665,55.665,0,0,1-4.531,9.639c-.453.713-1.1,2-1.293,2.4a15.344,15.344,0,0,0,.128,3.105s3.5-2.07,6.213-3.366a39.491,39.491,0,0,1,7.7-2.2s-5.951,2.393-7.829,4.271-5.823,4.981-5.823,4.981l.065,2.783a49.319,49.319,0,0,1,7.829-4.918,21.449,21.449,0,0,1,5.436-1.618l-8.346,5.833c-2.135,1.488-4.6,3.431-4.6,3.431s5.178-2.523,9.319-2.653c0,0-7.251,4.528-7.959,5.563s-1.813,2.2-1.943,2.4,3.365-1.165,5.371-1.683a36.732,36.732,0,0,1,4.206-.778,18.77,18.77,0,0,0-5.751,2.59c-3.04,2-4.223,2.415-4.538,2.793l-.315.378s6.666-2.4,8.284-2.783a10.169,10.169,0,0,1,3.363-.13s-4.576.7-6.688,2.75-4.891,4.651-7.9,4.481-4.691-.17-5.273-.235A12.312,12.312,0,0,0,153.2,121.562Z" transform="translate(-140.684 -73.073)" fill="none" stroke="#263238" stroke-linecap="round" stroke-linejoin="round" stroke-width="1"/>
      <path id="Path_13369" data-name="Path 13369" d="M206.107,115.535s-.25-9.5,1.343-13.982a43.38,43.38,0,0,1,2.37-5.843s3.043,8.461,2.888,13.209-2.528,11.352-2.528,11.352Z" transform="translate(-188.752 -90.05)" fill="#2e61e6" stroke="#263238" stroke-linecap="round" stroke-linejoin="round" stroke-width="1"/>
      <path id="Path_13370" data-name="Path 13370" d="M195.074,119.651a22.545,22.545,0,0,1-2.063-10.577c.413-5.673,1.033-8.206.773-9.959s-.463-3.406-.463-3.406,3.2,6.966,5.366,12.332a23.983,23.983,0,0,1,1.6,10.784,31.452,31.452,0,0,1-1.6,2.785L197.6,124.4Z" transform="translate(-178.906 -90.05)" fill="#2e61e6" stroke="#263238" stroke-linecap="round" stroke-linejoin="round" stroke-width="1"/>
      <path id="Path_13371" data-name="Path 13371" d="M162.144,174.9s-3.663-4.438-6.553-8.2a60.6,60.6,0,0,0-6.191-6.811,22.165,22.165,0,0,1,6.811,3.868c2.475,2.368,6.6,6.348,7.636,9.081a5.439,5.439,0,0,1,.053,4.438Z" transform="translate(-146.234 -138.183)" fill="#2e61e6" stroke="#263238" stroke-linecap="round" stroke-linejoin="round" stroke-width="1"/>
      <path id="Path_13372" data-name="Path 13372" d="M214.116,152.1a98.934,98.934,0,0,0,5.986-11.817,42.044,42.044,0,0,1,4.488-8.669s-7.584,6.916-9.029,9.5-2.683,3.713-3.25,6.448a18.052,18.052,0,0,0,.208,6.4C212.571,154.216,214.116,152.1,214.116,152.1Z" transform="translate(-193.253 -116.974)" fill="#2e61e6" stroke="#263238" stroke-linecap="round" stroke-linejoin="round" stroke-width="1"/>
      <path id="Path_13373" data-name="Path 13373" d="M178.244,156.277a24.547,24.547,0,0,0-3.768-8.514,20.989,20.989,0,0,0-7.326-5.623s2.063.155,3.456,4.541,3.458,8.411,4.646,9.546,2.63,2.578,2.63,2.578Z" transform="translate(-159.546 -124.871)" fill="#2e61e6" stroke="#263238" stroke-linecap="round" stroke-linejoin="round" stroke-width="1"/>
      <path id="Path_13374" data-name="Path 13374" d="M183.953,191.119a25.217,25.217,0,0,1-2.843-2.58,27.314,27.314,0,0,0-2.63-2.478,8.851,8.851,0,0,1,2.683,0,10.856,10.856,0,0,1,2.58,1.29,6.291,6.291,0,0,1-.98-2.528c-.155-1.34-.155-1.908-.155-1.908a20.535,20.535,0,0,1,3.2,1.75,11.382,11.382,0,0,1,2.633,3.5s-.363-.825,1.6-3.1a15.385,15.385,0,0,1,5.263-3.561,27.662,27.662,0,0,1-1.858,4.7,24.544,24.544,0,0,1-1.6,2.22,11.534,11.534,0,0,1,3.145-1.808c1.34-.363,1.653-.413,1.653-.413s-1.25,2.115-1.75,2.838a31.975,31.975,0,0,1-2.63,3,33.907,33.907,0,0,1-3.458,2.59l-2.27,1.188Z" transform="translate(-168.043 -154.397)" fill="#2e61e6" stroke="#263238" stroke-linecap="round" stroke-linejoin="round" stroke-width="1"/>
      <path id="Path_13375" data-name="Path 13375" d="M191.559,214.964a3.828,3.828,0,0,1-1.343-3.1c-.052-2.22.053-3.868.053-3.868a16.846,16.846,0,0,1,3.25,1.5,5.97,5.97,0,0,1,1.805,1.858,3.621,3.621,0,0,1,1.75-2.218,21.47,21.47,0,0,1,4.848-1.75s-.413,2.528-.875,4.076a10.5,10.5,0,0,1-2.425,3.663,33.107,33.107,0,0,1-3.5,2.788Z" transform="translate(-176.834 -173.806)" fill="#2e61e6" stroke="#263238" stroke-linecap="round" stroke-linejoin="round" stroke-width="1"/>
      <path id="Path_13376" data-name="Path 13376" d="M184.74,229.391s-1.083-1.805-1.65-2.94-.67-1.393-.67-1.393a22.093,22.093,0,0,1,2.735.465,18.679,18.679,0,0,1,2.165.875,3.859,3.859,0,0,1,1.343-2.218,13.533,13.533,0,0,1,2.373-1.75,7.273,7.273,0,0,1,1.5,2.53c.108.93.205,1.75.205,1.75l1.91-1.135a7.964,7.964,0,0,1-.208,3.148,6.5,6.5,0,0,1-1.083,2.373,2.953,2.953,0,0,1-.62.363s-.155.568-1.96.205a21.561,21.561,0,0,1-3.561-.98c-.155-.1-.568-.36-.775-.465S184.74,229.391,184.74,229.391Z" transform="translate(-170.998 -185.085)" fill="#2e61e6" stroke="#263238" stroke-linecap="round" stroke-linejoin="round" stroke-width="1"/>
      <path id="Path_13377" data-name="Path 13377" d="M155.736,225s-.413-.775-2.32-1.445a22.341,22.341,0,0,0-4.128-.93,8.662,8.662,0,0,1,3.561-.72,10.266,10.266,0,0,1,4.643,1.805c.36.413.053-.98-2.115-2.89a44.218,44.218,0,0,0-6.346-4.588,16.124,16.124,0,0,0-1.5-.673,13.57,13.57,0,0,1,5.986,1.393,27.523,27.523,0,0,1,4.438,3.2,11.474,11.474,0,0,0-2.785-4.593,25.24,25.24,0,0,0-3.923-3.25,31.793,31.793,0,0,1,5.521,2.838,59.552,59.552,0,0,1,6.346,6.038,10.847,10.847,0,0,1,3.405-5.573,15.477,15.477,0,0,1,5.633-2.84,9.361,9.361,0,0,1-1.29,4.128A30.672,30.672,0,0,1,168.8,220a34.884,34.884,0,0,1,5.781-2.838c1.808-.465,3.711-.925,3.711-.925s-6.038,3.558-7.121,4.848-1.393,1.7-1.393,1.7a41.619,41.619,0,0,1,3.973-1.393,22.559,22.559,0,0,1,3.611-.36,68.2,68.2,0,0,0-6.448,2.683c-1.03.683-2.943,1.7-2.943,1.7s-7.274-.208-8.821-.25S155.736,225,155.736,225Z" transform="translate(-144.832 -177.496)" fill="#2e61e6" stroke="#263238" stroke-linecap="round" stroke-linejoin="round" stroke-width="1"/>
      <path id="Path_13378" data-name="Path 13378" d="M181.348,248.626a2.874,2.874,0,0,1-.25-.217,6.2,6.2,0,0,1-1.345-1.95,21.613,21.613,0,0,0-2.683-3.818,13.6,13.6,0,0,1,2.733.413,10.385,10.385,0,0,1,2.478,1.135,5.826,5.826,0,0,1,1.083-1.805l.723-.773s1.908,1.908,2.425,2.63a4.368,4.368,0,0,1,.67,1.393s.25-.928,2.785-1.29,5.108-1.03,5.108-1.03a50.812,50.812,0,0,1-3.5,4.023,15.61,15.61,0,0,1-2.475,1.5Z" transform="translate(-166.986 -199.469)" fill="#2e61e6" stroke="#263238" stroke-linecap="round" stroke-linejoin="round" stroke-width="1"/>
      <path id="Path_13379" data-name="Path 13379" d="M175.411,260.576a7.076,7.076,0,0,1-3.5-1.188c-1.178-1.033-2-1.65-2-1.65a5.459,5.459,0,0,1,2.63.052c1.03.413,2.87,1.233,2.87,1.233s-.25-.1-.465-1.29a11.531,11.531,0,0,1-.205-1.7,7.126,7.126,0,0,1,3.043.878,6.313,6.313,0,0,1,1.5,1.29s-.62-.155,1.25-.67a32.149,32.149,0,0,1,4.488-.775s.155.928.31,2.115a2.786,2.786,0,0,1-.31,1.858Z" transform="translate(-161.616 -210.284)" fill="#2e61e6" stroke="#263238" stroke-linecap="round" stroke-linejoin="round" stroke-width="1"/>
      <path id="Path_13380" data-name="Path 13380" d="M147.776,266.385a15.5,15.5,0,0,0-6.566,4.178c-3.07,3.413-4.136,8.416-4.378,12.894-.388,7.181.4,15.852,3.163,22.553,1.408,3.4,4.486,6.789,8.349,7.251,1.875.228,5.116.228,6.651.34a19.024,19.024,0,0,0,3.976-.055c11.884-.893,14.822-15.3,14.94-24.934.023-1.693-.02-3.4-.1-5.091-.31-6.338-2.323-12.977-8.131-16.347a17.692,17.692,0,0,0-2.955-1.42l.455-1.08a2.933,2.933,0,0,0-1.25.34,5.577,5.577,0,0,1-1.42.57l-1.25-1.535-.738.91-1.593-.343-.625,1.308-2.1-.568-.908.853-1.593-.673a2.93,2.93,0,0,1-.738.683c-.4.225-2.16-.228-2.16-.228Z" transform="translate(-136.739 -216.299)" fill="#e0e0e0" stroke="#263238" stroke-linecap="round" stroke-linejoin="round" stroke-width="1"/>
      <path id="Path_13381" data-name="Path 13381" d="M174.335,274.286a7.178,7.178,0,0,1-3.971,3.3c-1.648.418-1.848-2.035-.32-3.335s3.971-1.27,5.043-1.913S175.17,272.869,174.335,274.286Z" transform="translate(-160.938 -222.379)" fill="#e0e0e0" stroke="#263238" stroke-linecap="round" stroke-linejoin="round" stroke-width="1"/>
      <path id="Path_13382" data-name="Path 13382" d="M174.217,278.145a.912.912,0,0,0-1.16-.28c-.238.068.313-.805.313-.805s-1.068,1.18-2.2.808c-.543-.18-.783-.183-.93-.125l-.2.185c-1.528,1.3-1.33,3.751.32,3.335A7.165,7.165,0,0,0,174.217,278.145Z" transform="translate(-160.935 -226.056)" fill="#fff" stroke="#263238" stroke-linecap="round" stroke-linejoin="round" stroke-width="1"/>
      <path id="Path_13383" data-name="Path 13383" d="M193.294,273.2c-.087,1.425-1.553,2.7-2.938,3.2s-2-1.77-1.168-3.178,2.838-1.713,3.518-2.34S193.379,271.769,193.294,273.2Z" transform="translate(-175.791 -221.308)" fill="#e0e0e0" stroke="#263238" stroke-linecap="round" stroke-linejoin="round" stroke-width="1"/>
      <path id="Path_13384" data-name="Path 13384" d="M193.273,277.333a1.958,1.958,0,0,0-1.54-.413c-.3.028-.378-.92-.378-.92s-.383,1.608-1.343,1.12c-.463-.235-.66-.235-.75-.168a1.044,1.044,0,0,1-.075.215c-.835,1.408-.215,3.671,1.168,3.178C191.68,279.873,193.108,278.7,193.273,277.333Z" transform="translate(-175.79 -225.261)" fill="#fff" stroke="#263238" stroke-linecap="round" stroke-linejoin="round" stroke-width="1"/>
      <path id="Path_13385" data-name="Path 13385" d="M210.407,271.19c.66,1.465-.4,3.013-1.463,3.678s-2.305-1.583-2.218-3,1.818-1.838,2.22-2.668S209.747,269.723,210.407,271.19Z" transform="translate(-189.224 -219.971)" fill="#e0e0e0" stroke="#263238" stroke-linecap="round" stroke-linejoin="round" stroke-width="1"/>
      <path id="Path_13386" data-name="Path 13386" d="M210.308,275.905a1.352,1.352,0,0,0-1.5-.048c-.28.09-1-.878-1-.878s.478,1.653-.6,1.25c-.518-.2-.683-.168-.718-.083a.945.945,0,0,1,.06.25c-.088,1.425,1.155,3.673,2.218,3C209.79,278.758,210.826,277.305,210.308,275.905Z" transform="translate(-189.05 -224.496)" fill="#fff" stroke="#263238" stroke-linecap="round" stroke-linejoin="round" stroke-width="1"/>
      <path id="Path_13387" data-name="Path 13387" d="M224.524,268.578c1.41,1.383,1.17,1.823-.1,2.465s-2.865-1.25-3.526-2.723.47-2.383,1.058-3.1S223.1,267.182,224.524,268.578Z" transform="translate(-199.705 -217.088)" fill="#e0e0e0" stroke="#263238" stroke-linecap="round" stroke-linejoin="round" stroke-width="1"/>
      <path id="Path_13388" data-name="Path 13388" d="M224.661,273.023c-.863-.708-1.093-.775-1.413-1.053a17.658,17.658,0,0,0-1.923-1.16s1.25,1.91.038,1.548c-.588-.173-.715-.13-.7-.033a1.631,1.631,0,0,1,.2.263c.66,1.465,2.25,3.368,3.526,2.723C225.6,274.7,225.894,274.316,224.661,273.023Z" transform="translate(-199.679 -221.368)" fill="#fff" stroke="#263238" stroke-linecap="round" stroke-linejoin="round" stroke-width="1"/>
      <path id="Path_13389" data-name="Path 13389" d="M236.923,271.01c2.075,1.25,2.178,2.98.52,3.481s-3.18-1.56-4.581-2.93-1.323-1.925-.2-2.373S234.848,269.752,236.923,271.01Z" transform="translate(-208.044 -220.07)" fill="#e0e0e0" stroke="#263238" stroke-linecap="round" stroke-linejoin="round" stroke-width="1"/>
      <path id="Path_13390" data-name="Path 13390" d="M238.8,275.05c-.98-.285-1.5.193-1.908.215a15.509,15.509,0,0,1-2.92-1.015s1.648,1.98.6,1.228c-.5-.363-.535-.393-.438-.318s.268.2.335.265c1.41,1.383,2.933,3.443,4.591,2.943C240.644,277.891,240.651,276.273,238.8,275.05Z" transform="translate(-209.659 -223.948)" fill="#fff" stroke="#263238" stroke-linecap="round" stroke-linejoin="round" stroke-width="1"/>
      <path id="Path_13391" data-name="Path 13391" d="M155.226,284.936c-.8,1.805-2.44,3.8-4.591,3.375-1.64-.328-2.178-2.075-.81-3.868,1.155-1.515,3.421-3.033,4.971-2.953C155.816,281.546,156.074,283.016,155.226,284.936Z" transform="translate(-145.969 -229.376)" fill="#e0e0e0" stroke="#263238" stroke-linecap="round" stroke-linejoin="round" stroke-width="1"/>
      <path id="Path_13392" data-name="Path 13392" d="M155.081,289.205c-.663-.318-1.625-.277-1.973-.515-.46-.31.215-1.85.215-1.85a3,3,0,0,1-2.25,1.218,2.064,2.064,0,0,0-1.065.155c-.068.083-.135.163-.2.25-1.365,1.805-.875,3.473.81,3.868C152.223,292.7,154.141,291.083,155.081,289.205Z" transform="translate(-145.949 -233.39)" fill="#fff" stroke="#263238" stroke-linecap="round" stroke-linejoin="round" stroke-width="1"/>
      <path id="Path_13393" data-name="Path 13393" d="M177.886,284.84c-.37,1.983-1.928,4.171-3.623,3.858s-2.523-1.8-1.618-3.751,2.793-3.751,4-3.388S178.253,282.857,177.886,284.84Z" transform="translate(-163.388 -229.395)" fill="#e0e0e0" stroke="#263238" stroke-linecap="round" stroke-linejoin="round" stroke-width="1"/>
      <path id="Path_13394" data-name="Path 13394" d="M177.829,289.5c-.665-.28-1.535.04-1.868-.2-.44-.318-.213-1.92-.213-1.92a4.274,4.274,0,0,1-1.95,1.275,2.368,2.368,0,0,0-1.015.433c-.047.088-.1.178-.138.268-.905,1.943-.075,3.43,1.618,3.751C175.887,293.4,177.4,291.421,177.829,289.5Z" transform="translate(-163.389 -233.795)" fill="#fff" stroke="#263238" stroke-linecap="round" stroke-linejoin="round" stroke-width="1"/>
      <path id="Path_13395" data-name="Path 13395" d="M199.777,284.692c.16,2-.89,4.226-2.635,4.026a3.129,3.129,0,0,1-2.618-3.841c.37-1.983,1.75-3.541,2.988-3.288S199.619,282.7,199.777,284.692Z" transform="translate(-180.026 -229.432)" fill="#e0e0e0" stroke="#263238" stroke-linecap="round" stroke-linejoin="round" stroke-width="1"/>
      <path id="Path_13396" data-name="Path 13396" d="M199.762,289.333c-.633-.19-1.408.125-1.78-.09-.5-.283-.77-1.843-.77-1.843a2.75,2.75,0,0,1-1.75,1.168,1.467,1.467,0,0,0-.918.413c-.022.09-.045.183-.06.275A3.126,3.126,0,0,0,197.1,293.1C198.779,293.3,199.834,291.273,199.762,289.333Z" transform="translate(-179.996 -233.81)" fill="#fff" stroke="#263238" stroke-linecap="round" stroke-linejoin="round" stroke-width="1"/>
      <path id="Path_13397" data-name="Path 13397" d="M220.722,281.784c.723,2-.105,4.5-1.925,4.388a3.385,3.385,0,0,1-3.168-3.433c-.168-1.993.278-3.961,1.55-3.768A4.175,4.175,0,0,1,220.722,281.784Z" transform="translate(-195.878 -227.479)" fill="#e0e0e0" stroke="#263238" stroke-linecap="round" stroke-linejoin="round" stroke-width="1"/>
      <path id="Path_13398" data-name="Path 13398" d="M220.861,286.49c-.885-.2-1.5.388-1.933.2-.575-.25-1.36-1.805-1.36-1.805a2.19,2.19,0,0,1-1.208,1.5c-.473.188-.633.378-.69.528a1.722,1.722,0,0,0,.015.278,3.379,3.379,0,0,0,3.168,3.433C220.593,290.726,221.436,288.433,220.861,286.49Z" transform="translate(-195.934 -231.92)" fill="#fff" stroke="#263238" stroke-linecap="round" stroke-linejoin="round" stroke-width="1"/>
      <path id="Path_13399" data-name="Path 13399" d="M239.329,282.549c1.25,1.82.543,4.173-.943,3.813s-3.123-2.263-3.846-4.251-.73-3.183.22-2.568S238.086,280.726,239.329,282.549Z" transform="translate(-209.697 -227.797)" fill="#e0e0e0" stroke="#263238" stroke-linecap="round" stroke-linejoin="round" stroke-width="1"/>
      <path id="Path_13400" data-name="Path 13400" d="M240.756,287.255c-1.218-.222-1.618.268-2.015,0a13.317,13.317,0,0,1-1.7-1.915s.673,1.455-.523.788c-.575-.32-.75.017-.79.168.03.09.058.183.093.275.723,2,2.358,3.9,3.846,4.251C241.088,291.176,241.783,289.028,240.756,287.255Z" transform="translate(-210.979 -232.265)" fill="#fff" stroke="#263238" stroke-linecap="round" stroke-linejoin="round" stroke-width="1"/>
      <path id="Path_13401" data-name="Path 13401" d="M161.436,300.762c-.3,2.025-2,4.193-3.7,4.341-1.83.163-3.1-2.818-2.58-4.718.5-1.855,2.855-3.2,4.541-3.531C161.256,296.552,161.781,298.445,161.436,300.762Z" transform="translate(-150.464 -240.877)" fill="#e0e0e0" stroke="#263238" stroke-linecap="round" stroke-linejoin="round" stroke-width="1"/>
      <path id="Path_13402" data-name="Path 13402" d="M161.357,306.873a2.693,2.693,0,0,0-2.045-.553c-.47-.115-.5-1.75-.5-1.75s-.673,2-2.305,1.463c-.785-.25-1.11-.25-1.25-.147-.038.1-.075.2-.105.308-.555,1.918.6,4.751,2.58,4.718C159.37,310.878,160.912,309.066,161.357,306.873Z" transform="translate(-150.443 -246.687)" fill="#fff" stroke="#263238" stroke-linecap="round" stroke-linejoin="round" stroke-width="1"/>
      <path id="Path_13403" data-name="Path 13403" d="M186.806,300.259a4.408,4.408,0,0,1-3.448,4.383c-2.275.545-3.15-2.643-2.88-4.366a5.1,5.1,0,0,1,3.6-4.021C185.526,295.773,186.809,297.936,186.806,300.259Z" transform="translate(-169.506 -240.401)" fill="#e0e0e0" stroke="#263238" stroke-linecap="round" stroke-linejoin="round" stroke-width="1"/>
      <path id="Path_13404" data-name="Path 13404" d="M186.782,306.635a3.771,3.771,0,0,0-2.348-.578c-.535-.1-.8-1.768-.8-1.768s-.438,2.353-1.95,1.845c-.728-.25-1.023-.2-1.148-.092-.025.105-.048.21-.065.32-.27,1.723.525,4.856,2.88,4.366a4.373,4.373,0,0,0,3.433-4.093Z" transform="translate(-169.497 -246.477)" fill="#fff" stroke="#263238" stroke-linecap="round" stroke-linejoin="round" stroke-width="1"/>
      <path id="Path_13405" data-name="Path 13405" d="M211.825,298.9a4.644,4.644,0,0,1-2.8,4.831c-1.47.525-3.115-1.893-3.093-4.233a4.725,4.725,0,0,1,2.613-4.193C209.67,294.656,211.505,296.544,211.825,298.9Z" transform="translate(-188.629 -239.644)" fill="#e0e0e0" stroke="#263238" stroke-linecap="round" stroke-linejoin="round" stroke-width="1"/>
      <path id="Path_13406" data-name="Path 13406" d="M211.84,305.515a3.247,3.247,0,0,0-2.375-.25c-.47-.047-.93-1.675-.93-1.675s-.028,2.345-1.5,1.925c-.705-.2-1-.143-1.11-.025,0,.105-.015.21-.015.32-.022,2.34,1.623,4.751,3.093,4.233A4.621,4.621,0,0,0,211.84,305.515Z" transform="translate(-188.614 -245.952)" fill="#fff" stroke="#263238" stroke-linecap="round" stroke-linejoin="round" stroke-width="1"/>
      <path id="Path_13407" data-name="Path 13407" d="M235.173,296.28a2.9,2.9,0,0,1-2.048,4.016c-2.2.738-3.531-2.143-3.768-3.888-.32-2.36.935-4.393,1.96-4.548C232.69,291.651,234.658,294.612,235.173,296.28Z" transform="translate(-206.161 -237.147)" fill="#e0e0e0" stroke="#263238" stroke-linecap="round" stroke-linejoin="round" stroke-width="1"/>
      <path id="Path_13408" data-name="Path 13408" d="M235.311,302.523c-.975-.78-1.668-.545-2.1-.83a7.843,7.843,0,0,1-1.41-1.9s.37,2.52-1.25,2.205c-.78-.152-1.073-.08-1.165.045a2.432,2.432,0,0,0,.033.323c.25,1.75,1.573,4.626,3.768,3.888A2.831,2.831,0,0,0,235.311,302.523Z" transform="translate(-206.224 -243.102)" fill="#fff" stroke="#263238" stroke-linecap="round" stroke-linejoin="round" stroke-width="1"/>
      <path id="Path_13409" data-name="Path 13409" d="M257.557,296a3.888,3.888,0,0,1-1.863,5c-2.25.788-3.548-2.053-4.056-3.793-.653-2.25-.56-3.5,1.093-4C254.762,292.581,256.727,294.331,257.557,296Z" transform="translate(-222.627 -238.068)" fill="#e0e0e0" stroke="#263238" stroke-linecap="round" stroke-linejoin="round" stroke-width="1"/>
      <path id="Path_13410" data-name="Path 13410" d="M258.551,302.053c-.873-.405-1.873.25-2.33.25-.608-.012-1.82-1.523-1.82-1.523s.052,2-1.055,1.97c-.533-.017-.853-.183-.905-.08.027.1.053.2.083.308.5,1.75,1.73,4.538,4.056,3.793A3.533,3.533,0,0,0,258.551,302.053Z" transform="translate(-223.51 -243.845)" fill="#fff" stroke="#263238" stroke-linecap="round" stroke-linejoin="round" stroke-width="1"/>
      <path id="Path_13411" data-name="Path 13411" d="M145.535,320.006c-.25,1.878-1.618,4.451-3.778,3.736a4.61,4.61,0,0,1-2.785-4.783c.333-2.25,2.035-4.138,3.818-3.751C144.748,315.643,145.765,318.256,145.535,320.006Z" transform="translate(-138.384 -254.627)" fill="#e0e0e0" stroke="#263238" stroke-linecap="round" stroke-linejoin="round" stroke-width="1"/>
      <path id="Path_13412" data-name="Path 13412" d="M145.479,326.608c-.98-.525-2-.375-2.473-.673-.638-.393-.863-2.4-.863-2.4a1.57,1.57,0,0,1-1.888,1.373c-.78-.17-1.13-.09-1.25.02-.02.105-.04.208-.055.313a4.614,4.614,0,0,0,2.785,4.783C143.4,330.6,145.144,328.918,145.479,326.608Z" transform="translate(-138.368 -260.914)" fill="#fff" stroke="#263238" stroke-linecap="round" stroke-linejoin="round" stroke-width="1"/>
      <path id="Path_13413" data-name="Path 13413" d="M171.935,321.372c-.058,2-1.278,4.823-3.608,4.463-1.973-.308-3.285-2.545-3.055-4.513.2-1.73,1.39-4.768,3.661-4.376C170.685,317.251,172,318.879,171.935,321.372Z" transform="translate(-158.118 -255.943)" fill="#e0e0e0" stroke="#263238" stroke-linecap="round" stroke-linejoin="round" stroke-width="1"/>
      <path id="Path_13414" data-name="Path 13414" d="M171.921,328.14c-.975-.473-2,.02-2.465-.25-.615-.348-.958-2.37-.958-2.37s-.583,1.7-1.98,1.6a1.483,1.483,0,0,0-1.19.3c-.018.113-.035.225-.048.338-.2,1.985,1.08,4.2,3.055,4.513C170.548,332.641,171.776,330.076,171.921,328.14Z" transform="translate(-158.128 -262.399)" fill="#fff" stroke="#263238" stroke-linecap="round" stroke-linejoin="round" stroke-width="1"/>
      <path id="Path_13415" data-name="Path 13415" d="M198.571,321.212c.068,1.973-.75,4.878-3.123,4.653-2.068-.2-3.6-2.4-3.5-4.5.1-2,1.118-4.641,3.476-4.453C197.178,317.052,198.488,318.7,198.571,321.212Z" transform="translate(-178.14 -255.936)" fill="#e0e0e0" stroke="#263238" stroke-linecap="round" stroke-linejoin="round" stroke-width="1"/>
      <path id="Path_13416" data-name="Path 13416" d="M198.595,328.025c-.813-.405-1.778.085-2.23-.155-.6-.32-1.118-2.32-1.118-2.32s-.29,2.06-2.023,1.648c-.833-.2-1.105.145-1.223.305,0,.115-.018.232-.023.348a4.311,4.311,0,0,0,3.5,4.5C197.232,332.549,198.565,330.426,198.595,328.025Z" transform="translate(-178.164 -262.421)" fill="#fff" stroke="#263238" stroke-linecap="round" stroke-linejoin="round" stroke-width="1"/>
      <path id="Path_13417" data-name="Path 13417" d="M225.117,318.528c.2,1.983-.615,5.178-3.12,5.131-2.31-.045-3.528-2.078-3.548-4.2-.015-1.78.425-5.051,2.91-4.888A4.03,4.03,0,0,1,225.117,318.528Z" transform="translate(-198.018 -254.184)" fill="#e0e0e0" stroke="#263238" stroke-linecap="round" stroke-linejoin="round" stroke-width="1"/>
      <path id="Path_13418" data-name="Path 13418" d="M225.138,325.423c-.98-.358-1.88.383-2.388.175-.668-.275-1.373-2.278-1.373-2.278s-.558,1.688-1.945,1.9c-.668.1-.9.285-.983.458v.35c.022,2.115,1.233,4.146,3.548,4.2C224.381,330.276,225.231,327.338,225.138,325.423Z" transform="translate(-198.019 -260.749)" fill="#fff" stroke="#263238" stroke-linecap="round" stroke-linejoin="round" stroke-width="1"/>
      <path id="Path_13419" data-name="Path 13419" d="M251.157,317.61c.278,1.75-.725,4.988-2.69,4.931s-3.283-2.705-3.483-4.626c-.268-2.53.665-4.441,2.21-4.133A4.834,4.834,0,0,1,251.157,317.61Z" transform="translate(-217.884 -253.572)" fill="#e0e0e0" stroke="#263238" stroke-linecap="round" stroke-linejoin="round" stroke-width="1"/>
      <path id="Path_13420" data-name="Path 13420" d="M251.3,324.235c-1.1-.3-1.918.438-2.353.208-.578-.308-1.35-2.273-1.35-2.273s.075,2.03-1.438,1.545c-.73-.235-1-.018-1.1.16a1.7,1.7,0,0,0,.025.355c.2,1.92,1.423,4.446,3.483,4.626C250.106,328.991,251.516,326.508,251.3,324.235Z" transform="translate(-217.976 -259.886)" fill="#fff" stroke="#263238" stroke-linecap="round" stroke-linejoin="round" stroke-width="1"/>
      <path id="Path_13421" data-name="Path 13421" d="M157.4,341.318c-.028,2.025-1.548,4.4-3.4,4.326-1.973-.077-3.481-3.015-3.438-5.118.048-2.343,1.81-3.513,3.751-3.751C156.553,336.487,157.426,339.63,157.4,341.318Z" transform="translate(-147.109 -270.826)" fill="#e0e0e0" stroke="#263238" stroke-linecap="round" stroke-linejoin="round" stroke-width="1"/>
      <path id="Path_13422" data-name="Path 13422" d="M157.383,348.233c-1-.8-1.945-.483-2.38-.645-.573-.215-1.05-2.038-1.05-2.038s-.305,2.105-2.068,1.465c-.848-.31-1.173-.315-1.293-.215,0,.105-.023.212-.025.32-.043,2.1,1.355,4.931,3.438,5.118C155.675,352.389,157.206,350.563,157.383,348.233Z" transform="translate(-147.109 -277.421)" fill="#fff" stroke="#263238" stroke-linecap="round" stroke-linejoin="round" stroke-width="1"/>
      <path id="Path_13423" data-name="Path 13423" d="M185.027,341.433a4.342,4.342,0,0,1-3.586,4.581c-2.378.285-3.566-2.633-3.533-4.623a4.734,4.734,0,0,1,3.608-4.5C183.574,336.485,185.014,339.515,185.027,341.433Z" transform="translate(-167.614 -270.898)" fill="#e0e0e0" stroke="#263238" stroke-linecap="round" stroke-linejoin="round" stroke-width="1"/>
      <path id="Path_13424" data-name="Path 13424" d="M185.012,348.65a4.768,4.768,0,0,0-2.605-.59c-.635-.168-1.145-2.02-1.145-2.02s-.328,2.415-2.063,1.945c-.835-.225-1.15-.17-1.27-.045,0,.11-.02.225-.023.34-.047,2,1.115,4.821,3.533,4.623A4.337,4.337,0,0,0,185.012,348.65Z" transform="translate(-167.611 -277.788)" fill="#fff" stroke="#263238" stroke-linecap="round" stroke-linejoin="round" stroke-width="1"/>
      <path id="Path_13425" data-name="Path 13425" d="M213.064,340.4a5.335,5.335,0,0,1-3.465,5.028c-1.9.5-3.15-2.89-3.228-4.581a5.281,5.281,0,0,1,3.118-4.691C211.461,335.515,213.011,338.718,213.064,340.4Z" transform="translate(-188.957 -270.314)" fill="#e0e0e0" stroke="#263238" stroke-linecap="round" stroke-linejoin="round" stroke-width="1"/>
      <path id="Path_13426" data-name="Path 13426" d="M213.068,347.88c-1.1-.708-2.305-.208-2.71-.3-.538-.122-.973-1.978-.973-1.978s-.25,2.443-1.8,2.033c-.75-.2-1.08-.12-1.2,0,0,.115-.013.23-.013.348,0,1.75,1.32,5.071,3.228,4.581A5.138,5.138,0,0,0,213.068,347.88Z" transform="translate(-188.967 -277.458)" fill="#fff" stroke="#263238" stroke-linecap="round" stroke-linejoin="round" stroke-width="1"/>
      <path id="Path_13427" data-name="Path 13427" d="M239.747,337.268c.115,2-.918,4.306-3.03,4.731-2.305.463-3.523-2.36-3.571-4.213-.055-2.128,1.565-4.886,3.145-5.178C237.927,332.3,239.637,335.358,239.747,337.268Z" transform="translate(-209.039 -267.698)" fill="#e0e0e0" stroke="#263238" stroke-linecap="round" stroke-linejoin="round" stroke-width="1"/>
      <path id="Path_13428" data-name="Path 13428" d="M239.771,344.655c-.935-.7-1.843-.278-2.29-.518C236.888,343.82,236.3,342,236.3,342s-.043,2.63-1.813,2.373c-.853-.123-1.2-.028-1.315.115v.358c.04,1.86,1.25,4.841,3.571,4.213A4.265,4.265,0,0,0,239.771,344.655Z" transform="translate(-209.059 -274.758)" fill="#fff" stroke="#263238" stroke-linecap="round" stroke-linejoin="round" stroke-width="1"/>
      <path id="Path_13429" data-name="Path 13429" d="M265.829,334.087c.115,2.265-1,4.736-3,5.633-1.668.75-3.168-1.34-3.32-3.851-.117-1.933.75-4.338,2.75-5C264.137,330.244,265.709,331.666,265.829,334.087Z" transform="translate(-228.804 -266.3)" fill="#e0e0e0" stroke="#263238" stroke-linecap="round" stroke-linejoin="round" stroke-width="1"/>
      <path id="Path_13430" data-name="Path 13430" d="M265.873,341.43c-.725-.378-1.848.41-2.288.393-.583-.025-1.223-1.733-1.223-1.733s-.415,2.233-1.75,2.315c-.648.04-.965,0-1.063.143v.348c.128,2.538,1.648,4.6,3.32,3.851A5.758,5.758,0,0,0,265.873,341.43Z" transform="translate(-228.843 -273.326)" fill="#fff" stroke="#263238" stroke-linecap="round" stroke-linejoin="round" stroke-width="1"/>
      <path id="Path_13431" data-name="Path 13431" d="M144.429,359.8c.05,2.458-1.575,4.386-3.19,3.673-1.865-.825-3.193-3.3-3.3-5.421-.118-2.355,1.205-4,3.03-3.433A5.367,5.367,0,0,1,144.429,359.8Z" transform="translate(-137.633 -284.14)" fill="#e0e0e0" stroke="#263238" stroke-linecap="round" stroke-linejoin="round" stroke-width="1"/>
      <path id="Path_13432" data-name="Path 13432" d="M144.411,366.756c-1.038-.678-2-.55-2.5-.883-.648-.44-1.175-2.533-1.175-2.533s-.05,1.83-1.648,1.205c-.77-.3-1.078-.278-1.168-.178v.32c.108,2.125,1.435,4.6,3.3,5.421C142.776,370.781,144.316,369.081,144.411,366.756Z" transform="translate(-137.625 -290.762)" fill="#fff" stroke="#263238" stroke-linecap="round" stroke-linejoin="round" stroke-width="1"/>
      <path id="Path_13433" data-name="Path 13433" d="M170.848,362.929c0,2-1.25,4.831-3.483,4.543-2.055-.268-3.426-2.815-3.446-4.863-.02-1.83,1.123-4.738,3.376-4.333A4.626,4.626,0,0,1,170.848,362.929Z" transform="translate(-157.123 -286.936)" fill="#e0e0e0" stroke="#263238" stroke-linecap="round" stroke-linejoin="round" stroke-width="1"/>
      <path id="Path_13434" data-name="Path 13434" d="M170.852,370.015c-1.065-.553-2.123-.085-2.615-.338-.65-.335-1.163-2.408-1.163-2.408s-.388,1.9-1.918,1.628c-.735-.133-1.1,0-1.213.135a3.083,3.083,0,0,0,0,.34c.03,2.058,1.36,4.561,3.446,4.863C169.359,374.521,170.894,371.791,170.852,370.015Z" transform="translate(-157.137 -293.71)" fill="#fff" stroke="#263238" stroke-linecap="round" stroke-linejoin="round" stroke-width="1"/>
      <path id="Path_13435" data-name="Path 13435" d="M198.5,363.188c-.018,1.95-.95,4.788-3.18,4.651-2.08-.13-3.651-2.525-3.653-4.653s1.3-4.821,3.586-4.588C197.313,358.8,198.5,361.123,198.5,363.188Z" transform="translate(-177.935 -287.195)" fill="#e0e0e0" stroke="#263238" stroke-linecap="round" stroke-linejoin="round" stroke-width="1"/>
      <path id="Path_13436" data-name="Path 13436" d="M198.484,370.35c-.833-.5-1.853-.04-2.3-.273-.59-.308-1.14-2.368-1.14-2.368s-.25,2.128-2.073,1.75c-.873-.185-1.18.073-1.3.225v.345c.012,2.123,1.5,4.441,3.653,4.653C197.023,374.844,198.386,372.721,198.484,370.35Z" transform="translate(-177.935 -294.04)" fill="#fff" stroke="#263238" stroke-linecap="round" stroke-linejoin="round" stroke-width="1"/>
      <path id="Path_13437" data-name="Path 13437" d="M226.021,361.165c-.015,2.083-1.08,5.053-3.513,5.156s-3.543-2.228-3.511-4.338c.02-2.07.85-5.163,3.456-5A3.892,3.892,0,0,1,226.021,361.165Z" transform="translate(-198.43 -285.989)" fill="#e0e0e0" stroke="#263238" stroke-linecap="round" stroke-linejoin="round" stroke-width="1"/>
      <path id="Path_13438" data-name="Path 13438" d="M226.013,368.46c-.97-.38-1.973.31-2.48.122-.67-.25-1.268-2.3-1.268-2.3s-.73,1.915-2.218,1.983c-.715.03-.953.185-1.048.343v.343c-.023,2.118,1.108,4.438,3.521,4.346C224.832,373.211,225.913,370.461,226.013,368.46Z" transform="translate(-198.431 -292.967)" fill="#fff" stroke="#263238" stroke-linecap="round" stroke-linejoin="round" stroke-width="1"/>
      <path id="Path_13439" data-name="Path 13439" d="M253.428,358.555c-.03,1.933-1.193,4.823-3.205,5.2-1.57.3-3.1-1.808-3.135-4.268-.033-1.9.833-4.706,3.063-4.751A3.56,3.56,0,0,1,253.428,358.555Z" transform="translate(-219.495 -284.312)" fill="#e0e0e0" stroke="#263238" stroke-linecap="round" stroke-linejoin="round" stroke-width="1"/>
      <path id="Path_13440" data-name="Path 13440" d="M253.441,365.72c-.963-.25-1.868.515-2.29.358-.558-.2-1.078-2.178-1.078-2.178s-.215,2.155-1.783,1.883c-.75-.13-1.063.065-1.17.233v.343c.027,2.473,1.548,4.553,3.135,4.268C252.186,370.278,253.286,367.576,253.441,365.72Z" transform="translate(-219.521 -291.182)" fill="#fff" stroke="#263238" stroke-linecap="round" stroke-linejoin="round" stroke-width="1"/>
      <path id="Path_13441" data-name="Path 13441" d="M158.314,383.452c.085,2.563-1.355,4.581-2.955,4.228-2.08-.46-3.438-3.285-3.651-5.421-.25-2.45,1.25-3.751,3.148-3.7C157.131,378.619,158.247,381.5,158.314,383.452Z" transform="translate(-147.945 -302.173)" fill="#e0e0e0" stroke="#263238" stroke-linecap="round" stroke-linejoin="round" stroke-width="1"/>
      <path id="Path_13442" data-name="Path 13442" d="M158.343,390.48c-1-.788-1.943-.46-2.393-.683-.6-.3-1.215-2.308-1.215-2.308s-.16,2.173-1.825,1.418c-.8-.363-1.093-.383-1.19-.285a2.215,2.215,0,0,0,.018.338c.213,2.135,1.57,4.961,3.651,5.421C156.921,394.719,158.311,392.883,158.343,390.48Z" transform="translate(-147.974 -308.874)" fill="#fff" stroke="#263238" stroke-linecap="round" stroke-linejoin="round" stroke-width="1"/>
      <path id="Path_13443" data-name="Path 13443" d="M185.31,384.459c.02,2.1-1.2,4.5-3.438,4.6-2.32.115-3.581-2.683-3.678-4.713a4.277,4.277,0,0,1,3.473-4.583C183.907,379.521,185.29,382.406,185.31,384.459Z" transform="translate(-167.824 -303.07)" fill="#e0e0e0" stroke="#263238" stroke-linecap="round" stroke-linejoin="round" stroke-width="1"/>
      <path id="Path_13444" data-name="Path 13444" d="M185.309,391.7c-.975-.75-2.075-.375-2.573-.54-.655-.22-1.25-2.2-1.25-2.2s-.293,2.375-2.035,1.948c-.84-.205-1.143-.138-1.25,0v.353c.07,2.06,1.29,4.768,3.678,4.713C183.873,395.921,185.4,393.546,185.309,391.7Z" transform="translate(-167.833 -309.977)" fill="#fff" stroke="#263238" stroke-linecap="round" stroke-linejoin="round" stroke-width="1"/>
      <path id="Path_13445" data-name="Path 13445" d="M213.359,384.048c-.057,2.155-1.865,4.718-3.671,4.986s-3-2.913-3.02-4.681a4.611,4.611,0,0,1,3.16-4.7C211.714,379.208,213.406,382.208,213.359,384.048Z" transform="translate(-189.182 -302.965)" fill="#e0e0e0" stroke="#263238" stroke-linecap="round" stroke-linejoin="round" stroke-width="1"/>
      <path id="Path_13446" data-name="Path 13446" d="M213.352,391.435c-1.058-.673-2.343-.145-2.75-.28-.538-.178-.933-2.145-.933-2.145s-.38,2.375-1.835,2c-.7-.183-1.03-.1-1.14.043a3.364,3.364,0,0,0,0,.355c.015,1.775,1.178,4.943,3.02,4.681C211.412,395.841,213.252,393.508,213.352,391.435Z" transform="translate(-189.198 -310.014)" fill="#fff" stroke="#263238" stroke-linecap="round" stroke-linejoin="round" stroke-width="1"/>
      <path id="Path_13447" data-name="Path 13447" d="M240.036,380.678c-.14,2.1-1.273,4.606-3.446,5.133-2.25.55-3.21-2.48-3.165-4.208.053-2.215,1.653-4.836,3.521-5.218S240.159,378.822,240.036,380.678Z" transform="translate(-209.249 -300.519)" fill="#e0e0e0" stroke="#263238" stroke-linecap="round" stroke-linejoin="round" stroke-width="1"/>
      <path id="Path_13448" data-name="Path 13448" d="M239.983,388.115c-.85-.545-1.808.015-2.25-.165-.573-.235-1.025-2.13-1.025-2.13s-.25,2.535-1.978,2.36c-.838-.082-1.188.023-1.315.173,0,.118-.018.238-.02.36-.05,1.735.9,4.751,3.165,4.208C238.633,392.416,239.77,390.116,239.983,388.115Z" transform="translate(-209.225 -307.622)" fill="#fff" stroke="#263238" stroke-linecap="round" stroke-linejoin="round" stroke-width="1"/>
      <path id="Path_13449" data-name="Path 13449" d="M265.783,374.859c-.29,2.273-1.543,4.771-3.463,5.853-1.458.823-2.608-1-2.5-3.523.1-2.093,1.193-4.478,3.25-5.3C264.86,371.181,266.085,372.474,265.783,374.859Z" transform="translate(-229.039 -297.031)" fill="#e0e0e0" stroke="#263238" stroke-linecap="round" stroke-linejoin="round" stroke-width="1"/>
      <path id="Path_13450" data-name="Path 13450" d="M265.747,382.308c-.62-.25-1.665.6-2.05.608-.5,0-.87-1.705-.87-1.705s-.543,2.25-1.888,2.455c-.648.1-.963.155-1.073.31,0,.115-.023.23-.027.348-.133,2.528,1.03,4.346,2.5,3.523C264.167,386.816,265.372,384.47,265.747,382.308Z" transform="translate(-229.052 -304.164)" fill="#fff" stroke="#263238" stroke-linecap="round" stroke-linejoin="round" stroke-width="1"/>
      <path id="Path_13451" data-name="Path 13451" d="M148.9,403.593c.29,2.425-.848,3.971-2.165,3.138a9.628,9.628,0,0,1-3.563-5.568c-.558-2.25.408-3.716,2.073-3A6.657,6.657,0,0,1,148.9,403.593Z" transform="translate(-141.446 -316.741)" fill="#e0e0e0" stroke="#263238" stroke-linecap="round" stroke-linejoin="round" stroke-width="1"/>
      <path id="Path_13452" data-name="Path 13452" d="M149.238,410.738c-1-.808-1.815-.71-2.265-1.07a8.8,8.8,0,0,1-1.328-2.578s.143,1.86-1.25.98c-.675-.423-.91-.46-.965-.383.02.1.038.205.065.308a9.532,9.532,0,0,0,3.563,5.568C148.308,414.361,149.386,413.011,149.238,410.738Z" transform="translate(-141.757 -323.573)" fill="#fff" stroke="#263238" stroke-linecap="round" stroke-linejoin="round" stroke-width="1"/>
      <path id="Path_13453" data-name="Path 13453" d="M172.963,408.4c.075,2.5-1.54,4.521-3.033,4.278-2-.325-3.265-2.875-3.5-4.818-.285-2.433,1.128-4.426,2.868-4.168C171.456,404,172.9,406.236,172.963,408.4Z" transform="translate(-158.978 -321.009)" fill="#e0e0e0" stroke="#263238" stroke-linecap="round" stroke-linejoin="round" stroke-width="1"/>
      <path id="Path_13454" data-name="Path 13454" d="M173.013,415.573c-1.048-.63-2.048-.178-2.52-.418-.623-.313-1.22-2.355-1.22-2.355s-.2,2.035-1.7,1.6c-.723-.21-1.023-.148-1.115-.028a1.537,1.537,0,0,0,.025.338c.23,1.943,1.485,4.5,3.5,4.818C171.408,419.759,172.966,417.933,173.013,415.573Z" transform="translate(-159.029 -327.856)" fill="#fff" stroke="#263238" stroke-linecap="round" stroke-linejoin="round" stroke-width="1"/>
      <path id="Path_13455" data-name="Path 13455" d="M199.067,408.916c-.15,2.518-1.5,4.561-3,4.413-2.038-.2-3.311-2.555-3.373-4.518-.065-2.068,1.25-4.751,3.408-4.583C198.144,404.4,199.187,406.915,199.067,408.916Z" transform="translate(-178.701 -321.421)" fill="#e0e0e0" stroke="#263238" stroke-linecap="round" stroke-linejoin="round" stroke-width="1"/>
      <path id="Path_13456" data-name="Path 13456" d="M199.073,416.163c-.738-.6-1.73-.158-2.12-.385-.518-.3-1.018-2.338-1.018-2.338s-.23,2.133-1.955,1.785c-.833-.168-1.15,0-1.25.155v.348c.063,1.965,1.335,4.318,3.373,4.518C197.548,420.388,198.866,418.581,199.073,416.163Z" transform="translate(-178.73 -328.336)" fill="#fff" stroke="#263238" stroke-linecap="round" stroke-linejoin="round" stroke-width="1"/>
      <path id="Path_13457" data-name="Path 13457" d="M224.916,407.34c-.34,1.945-1.523,4.853-3.783,5.061-1.75.16-3.055-1.773-2.958-4.318.085-2.165,1.1-4.9,3.658-4.963C223.9,403.089,225.226,405.562,224.916,407.34Z" transform="translate(-197.809 -320.595)" fill="#e0e0e0" stroke="#263238" stroke-linecap="round" stroke-linejoin="round" stroke-width="1"/>
      <path id="Path_13458" data-name="Path 13458" d="M224.9,414.775c-.838-.44-1.863.233-2.32.063-.608-.228-1.03-2.268-1.03-2.268s-.893,2.1-2.318,2.015c-.685-.038-.9.09-1,.25,0,.118-.02.235-.028.353-.113,2.56,1.2,4.473,2.958,4.318C223.3,419.309,224.568,416.746,224.9,414.775Z" transform="translate(-197.826 -327.683)" fill="#fff" stroke="#263238" stroke-linecap="round" stroke-linejoin="round" stroke-width="1"/>
      <path id="Path_13459" data-name="Path 13459" d="M250.863,402.695c-.435,2.058-1.75,4.711-3.691,5.5-1.35.545-2.41-1.235-2.145-3.818.213-2.08,1.32-4.751,3.5-5.183C250.118,398.859,251.373,400.285,250.863,402.695Z" transform="translate(-217.921 -317.616)" fill="#e0e0e0" stroke="#263238" stroke-linecap="round" stroke-linejoin="round" stroke-width="1"/>
      <path id="Path_13460" data-name="Path 13460" d="M250.78,410.053c-.688-.233-1.605.6-1.963.5-.473-.12-.678-2.023-.678-2.023s-.5,2.235-1.943,2.183c-.7-.028-1,.158-1.13.333-.02.12-.038.25-.05.36-.278,2.593.785,4.358,2.145,3.818C249.03,414.486,250.263,412.006,250.78,410.053Z" transform="translate(-217.91 -324.653)" fill="#fff" stroke="#263238" stroke-linecap="round" stroke-linejoin="round" stroke-width="1"/>
      <path id="Path_13461" data-name="Path 13461" d="M164.411,430.424c.25,2.265-.473,3.946-1.668,3.378-1.805-.855-3.23-3.125-3.813-5.083-.63-2.123.375-3.383,2.018-3.038C162.983,426.108,164.2,428.446,164.411,430.424Z" transform="translate(-153.239 -337.473)" fill="#e0e0e0" stroke="#263238" stroke-linecap="round" stroke-linejoin="round" stroke-width="1"/>
      <path id="Path_13462" data-name="Path 13462" d="M164.783,437.173c-.883-.685-1.678-.43-2.09-.693a7.257,7.257,0,0,1-1.28-2.25s.073,1.91-1.285,1.06c-.653-.41-.865-.468-.918-.4.023.1.045.2.073.3.583,1.958,2,4.228,3.813,5.083C164.238,440.8,164.908,439.271,164.783,437.173Z" transform="translate(-153.591 -343.927)" fill="#fff" stroke="#263238" stroke-linecap="round" stroke-linejoin="round" stroke-width="1"/>
      <path id="Path_13463" data-name="Path 13463" d="M187.577,432.521c-.078,2.28-1.063,3.931-2.69,3.873s-3.308-1.853-3.553-4.121,1.105-4.181,2.968-4.183C186.5,428.085,187.642,430.548,187.577,432.521Z" transform="translate(-170.162 -339.323)" fill="#e0e0e0" stroke="#263238" stroke-linecap="round" stroke-linejoin="round" stroke-width="1"/>
      <path id="Path_13464" data-name="Path 13464" d="M187.576,439.365c-.783-.65-1.75-.273-2.2-.455-.6-.25-1.178-2.09-1.178-2.09s-.25,2.033-1.793,1.678c-.75-.17-1-.1-1.073.013a1.486,1.486,0,0,0,.022.313c.25,2.268,1.928,4.063,3.553,4.121C186.463,443,187.416,441.5,187.576,439.365Z" transform="translate(-170.18 -345.87)" fill="#fff" stroke="#263238" stroke-linecap="round" stroke-linejoin="round" stroke-width="1"/>
      <path id="Path_13465" data-name="Path 13465" d="M212.2,432.792c-.37,2.338-2.428,4.178-3.526,4.168s-2.353-1.8-2.29-4.091,1.53-4.176,2.96-4.308S212.569,430.452,212.2,432.792Z" transform="translate(-188.968 -339.672)" fill="#e0e0e0" stroke="#263238" stroke-linecap="round" stroke-linejoin="round" stroke-width="1"/>
      <path id="Path_13466" data-name="Path 13466" d="M212.139,439.785c-.835-.558-2.118-.068-2.455-.228-.445-.213-.633-2.078-.633-2.078s-.6,2.048-1.72,1.72c-.54-.16-.833-.078-.93.048,0,.105-.015.21-.018.315-.063,2.3,1.193,4.081,2.29,4.091C209.724,443.663,211.667,441.973,212.139,439.785Z" transform="translate(-188.968 -346.365)" fill="#fff" stroke="#263238" stroke-linecap="round" stroke-linejoin="round" stroke-width="1"/>
      <path id="Path_13467" data-name="Path 13467" d="M235.174,429.023c-.58,1.87-1.92,4.123-3.751,4.8-1.285.47-2.378-1.153-2-3.486a6.264,6.264,0,0,1,3.8-4.973C234.841,424.845,235.866,426.8,235.174,429.023Z" transform="translate(-206.192 -337.213)" fill="#e0e0e0" stroke="#263238" stroke-linecap="round" stroke-linejoin="round" stroke-width="1"/>
      <path id="Path_13468" data-name="Path 13468" d="M235.071,436.458c-.563-.31-1.5.338-1.835.25-.448-.123-.535-1.908-.535-1.908s-.58,2.215-2.058,2.145c-.71-.033-1.035.073-1.165.21-.023.108-.045.215-.063.325-.37,2.338.618,3.908,2,3.486C232.753,440.556,234.326,438.6,235.071,436.458Z" transform="translate(-206.184 -344.355)" fill="#fff" stroke="#263238" stroke-linecap="round" stroke-linejoin="round" stroke-width="1"/>
      <path id="Path_13469" data-name="Path 13469" d="M256.274,420.353a18.5,18.5,0,0,1-4.033,5.308c-1,.873-1.32-.173-.65-2.425.62-2.075,1.858-4.371,3.751-5.436C256.791,416.975,257.351,418.256,256.274,420.353Z" transform="translate(-222.608 -331.416)" fill="#e0e0e0" stroke="#263238" stroke-linecap="round" stroke-linejoin="round" stroke-width="1"/>
      <path id="Path_13470" data-name="Path 13470" d="M256.127,427.978c-.28-.057-1.178.818-1.418.863-.32.058-.09-1.5-.09-1.5s-.87,2.1-1.983,2.445a2,2,0,0,0-.943.478c-.035.105-.07.21-.1.315-.673,2.25-.345,3.3.65,2.425A19.467,19.467,0,0,0,256.127,427.978Z" transform="translate(-222.609 -338.76)" fill="#fff" stroke="#263238" stroke-linecap="round" stroke-linejoin="round" stroke-width="1"/>
    </g>
    <g id="freepik--Coconut--inject-32" transform="translate(24.957 88.34)">
      <path id="Path_13471" data-name="Path 13471" d="M97.912,317.53l4.936,2.075a15.452,15.452,0,0,1,8.869,11.014,23.313,23.313,0,0,1-2.635,16.032c-2.278,3.661-5.651,6-11.159,7.866a19.359,19.359,0,0,1-13.945-.07c-4-1.57-6.438-3.5-7.5-5.436s-3.165-10.957-.15-17.678,10.872-9.584,14.447-10.8a65.956,65.956,0,0,0,7.139-3Z" transform="translate(-72.173 -317.342)" fill="#2e61e6" stroke="#263238" stroke-linecap="round" stroke-linejoin="round" stroke-width="1"/>
      <path id="Path_13472" data-name="Path 13472" d="M100.858,328.051c-1-2.5-1.5-4.578-3.075-6.081s-4.863-3.138-6.078-3.933-1.36-1.073-2.075-1.073-1-.142-1.215,0a6.532,6.532,0,0,0-.645.573,23.736,23.736,0,0,1-2.5-.288c-.5-.145-1-.715-2-.358s-1.358,0-4,1-4.158,1.218-6.724,2.94-5.436,6.078-6.366,7.724S64.39,336.28,64.39,338.57a23.936,23.936,0,0,0,2.575,8.439c.788,1.145,5.291,4.363,8.3,5.5a17.308,17.308,0,0,0,9.369.645,22.145,22.145,0,0,0,8.224-3.576C96,347.222,99.148,341,100.293,338.42S101.858,330.554,100.858,328.051Z" transform="translate(-64.39 -316.776)" fill="#263238"/>
      <path id="Path_13473" data-name="Path 13473" d="M89.136,320.889s-.093-.025-.263-.055a11,11,0,0,0-4.671.2,28.522,28.522,0,0,0-8.226,3.648,27.25,27.25,0,0,0-6.436,8.866,24.711,24.711,0,0,0-.715,10.086,11.107,11.107,0,0,0,4.873,7.939c3.8,2.563,8.439,4.576,10.8,4.148a51.34,51.34,0,0,0,7.939-2.575c2-.788,6.223-5.5,7.581-7.654s2.5-6.651,2.5-11.084-1.358-7.869-2.788-9.584-5.221-3.218-6.866-3.5S89.136,320.889,89.136,320.889Z" transform="translate(-67.545 -319.698)" fill="#e5e5e5"/>
      <path id="Path_13474" data-name="Path 13474" d="M123.954,346.426a20.361,20.361,0,0,0-.3-3.5c-.985-1.623-3.386-5.2-4.851-5.443-1.718-.283-8.161-.783-8.161-.783l-4.648.428s-2.033,1.343-3.288,2.25a14.667,14.667,0,0,1,7.086,3.441c3.563,3.25,3.563,9.556,2.025,12.474a10.192,10.192,0,0,1-8.344,5.5,33.1,33.1,0,0,1-6.286-.223,2.435,2.435,0,0,0,.66.958c1.93,1.93,2.718,4.291,8.654,4.863,1.1.108,2.308.17,3.556.2,1.43-.5,2.815-1.023,3.811-1.413,2-.788,6.223-5.5,7.581-7.654S123.954,350.86,123.954,346.426Z" transform="translate(-88.989 -331.718)" fill="#c7c7c7"/>
      <path id="Path_13475" data-name="Path 13475" d="M89.136,320.889s-.093-.025-.263-.055a11,11,0,0,0-4.671.2,28.522,28.522,0,0,0-8.226,3.648,27.25,27.25,0,0,0-6.436,8.866,24.711,24.711,0,0,0-.715,10.086,11.107,11.107,0,0,0,4.873,7.939,34.063,34.063,0,0,0,4.206,2.438,15.321,15.321,0,0,0,1.29-2.225c.573-1.215.86-1.573.645-2.145s-.573-1.645-.573-1.645a6.586,6.586,0,0,1-3.068-2.145c-1.288-1.645-2.575-6.651-2.575-7.224a4.422,4.422,0,0,1,.073-1.93,23.84,23.84,0,0,1,1.215-3.791,3.177,3.177,0,0,1,.93-1.5,9.607,9.607,0,0,1,1.5-1.288,37.873,37.873,0,0,1,4.858-2.433c1.358-.5,3-.93,3.433-1.073s.428-.358,1-.358a6.331,6.331,0,0,1,2.218.573c.573.285.215.358.93.358H91a3.931,3.931,0,0,1,.573.07,34.254,34.254,0,0,0,2-3,7.5,7.5,0,0,0,.858-2.145c0-.113-.155-.3-.3-.458a10.385,10.385,0,0,0-1.27-.33C91.2,321.032,89.136,320.889,89.136,320.889Z" transform="translate(-67.545 -319.698)" fill="#fff"/>
      <path id="Path_13476" data-name="Path 13476" d="M151.82,346.545l-.5-.055A1.065,1.065,0,0,0,151.82,346.545Z" transform="translate(-129.584 -339.06)" fill="#969696"/>
      <path id="Path_13477" data-name="Path 13477" d="M157.878,322.9c0-.112-.155-.3-.3-.458a10.38,10.38,0,0,0-1.27-.33c-1.093-.19-2.368-.315-3.105-.38l.6.453c.285.215,1.215.573.928.93a4.983,4.983,0,0,0-1.143,2.5c-.288,1.5-.358,2.36-.358,2.36h1.215a3.927,3.927,0,0,1,.573.07,34.262,34.262,0,0,0,2-3A7.455,7.455,0,0,0,157.878,322.9Z" transform="translate(-130.994 -320.491)" fill="#c7c7c7"/>
      <path id="Path_13478" data-name="Path 13478" d="M125.358,348.481c1.36-2.145,2.5-6.651,2.5-11.084s-1.358-7.869-2.788-9.584c-1.12-1.343-3.683-2.553-5.533-3.153-.155.413-1.09,2.873-1.548,3.726a4.115,4.115,0,0,0-.573,2.43,7.285,7.285,0,0,0,2.933,1.645c1.288.43,1.358.143,1.715.858a4.55,4.55,0,0,1,.645,1.718c.145.858.428,4.576.428,5.5a17.232,17.232,0,0,1-.57,3.363c-.143.43-.358,1.143-.5,1.573s-.428,1.145-.715,1.215a12.321,12.321,0,0,0-1.573,1.073,12.855,12.855,0,0,0-1,.86,37.962,37.962,0,0,1-3.148,2.5c-.648.355-.715.785-1.645.93a18.781,18.781,0,0,1-1.86.358h-1.575c-.643,0-1.073.07-1.645.07s-.643.142-1,0a13.249,13.249,0,0,1-1.86-.715,11.136,11.136,0,0,0-1.145-.715c-.86-.43-1.715,2.218-1.645,2.5s.43.215.43.5,0,.86-.285.93-1,1.36-1,1.36a1.491,1.491,0,0,0,.025.233c2.875,1.5,5.728,2.433,7.414,2.128a51.613,51.613,0,0,0,7.939-2.575C119.78,355.337,124,350.626,125.358,348.481Z" transform="translate(-92.896 -322.689)" fill="#fff"/>
      <path id="Path_13479" data-name="Path 13479" d="M77.3,367.915l-3.733-.655c-.128.25-.25.485-.345.713Z" transform="translate(-71.012 -354.637)" fill="#e5e5e5"/>
      <path id="Path_13480" data-name="Path 13480" d="M69.7,382c-.027.18-.055.365-.08.553l4.478-.23Z" transform="translate(-68.312 -365.692)" fill="#e5e5e5"/>
      <path id="Path_13481" data-name="Path 13481" d="M68.865,390.24c-.018.22-.033.443-.045.663l3.971-.723Z" transform="translate(-67.712 -371.826)" fill="#e5e5e5"/>
      <path id="Path_13482" data-name="Path 13482" d="M68.673,392.715c0,.27-.025.54-.033.808l4.366-1.053Z" transform="translate(-67.577 -373.544)" fill="#e5e5e5"/>
      <path id="Path_13483" data-name="Path 13483" d="M85,437.715q.415.345.9.675l1.445-1.87Z" transform="translate(-79.847 -406.58)" fill="#e5e5e5"/>
      <path id="Path_13484" data-name="Path 13484" d="M103.935,335.925,102.145,333c-.2.11-.385.22-.565.333Z" transform="translate(-92.281 -328.943)" fill="#e5e5e5"/>
      <path id="Path_13485" data-name="Path 13485" d="M73.061,403.63l-4.251.725c.02.3.045.57.075.82Z" transform="translate(-67.705 -381.913)" fill="#e5e5e5"/>
      <path id="Path_13486" data-name="Path 13486" d="M70.09,412.34c.053.25.113.5.18.775l4.548-1.765Z" transform="translate(-68.665 -387.703)" fill="#e5e5e5"/>
      <path id="Path_13487" data-name="Path 13487" d="M82.138,359.57l-3.275-2.1c-.18.27-.355.543-.523.813Z" transform="translate(-74.852 -347.295)" fill="#e5e5e5"/>
      <path id="Path_13488" data-name="Path 13488" d="M75.48,423.553c.118.2.25.4.38.6l4.563-2.8Z" transform="translate(-72.707 -395.21)" fill="#e5e5e5"/>
      <path id="Path_13489" data-name="Path 13489" d="M76.551,416.79l-5.281.828c.1.333.21.678.345,1.028Z" transform="translate(-69.55 -391.783)" fill="#e5e5e5"/>
      <path id="Path_13490" data-name="Path 13490" d="M112.25,328.313l2.043,3.318-1.62-3.5Z" transform="translate(-100.283 -325.291)" fill="#e5e5e5"/>
      <path id="Path_13491" data-name="Path 13491" d="M118.723,325.51c-.2.073-.4.15-.6.228l1.22,1.568Z" transform="translate(-104.686 -323.326)" fill="#e5e5e5"/>
      <path id="Path_13492" data-name="Path 13492" d="M129.19,322.27l1.528,4.518s-.8-3.461-1.11-4.638Z" transform="translate(-112.988 -320.806)" fill="#e5e5e5"/>
      <path id="Path_13493" data-name="Path 13493" d="M90.563,441.1l-1.373.825c.25.16.48.315.725.473Z" transform="translate(-82.989 -410.014)" fill="#e5e5e5"/>
      <path id="Path_13494" data-name="Path 13494" d="M77.64,429.318a10.071,10.071,0,0,0,.678.84L81.4,427.94Z" transform="translate(-74.327 -400.145)" fill="#e5e5e5"/>
      <path id="Path_13495" data-name="Path 13495" d="M88.978,343.49c-.233.263-.47.54-.708.833l3.821,1.975Z" transform="translate(-82.299 -336.811)" fill="#e5e5e5"/>
      <path id="Path_13496" data-name="Path 13496" d="M97.425,336.36c-.04.03-.08.055-.118.085-.088.065-.178.138-.268.215l3.415,3.288Z" transform="translate(-88.876 -331.463)" fill="#e5e5e5"/>
      <path id="Path_13497" data-name="Path 13497" d="M190.423,338.028a8.169,8.169,0,0,0-.778-1.125c-.035-.043-.075-.082-.113-.123l-1.033,2.555Z" transform="translate(-157.468 -331.778)" fill="#e5e5e5"/>
      <path id="Path_13498" data-name="Path 13498" d="M170.73,438.14c-1.025.735-2.25,1.6-2.25,1.6l-.57-.858.188,1.648A23.378,23.378,0,0,0,170.73,438.14Z" transform="translate(-142.026 -407.795)" fill="#e5e5e5"/>
      <path id="Path_13499" data-name="Path 13499" d="M163.04,441.565l-1.75-2.145.428,2.87.233-.09a5.21,5.21,0,0,0,1.09-.635Z" transform="translate(-137.061 -408.755)" fill="#e5e5e5"/>
      <path id="Path_13500" data-name="Path 13500" d="M138.58,446.933c.423-.115.858-.25,1.3-.383l-.83-3.751Z" transform="translate(-120.03 -411.289)" fill="#e5e5e5"/>
      <path id="Path_13501" data-name="Path 13501" d="M126.463,456.6l.063-1.468-.445,1.43C126.213,456.573,126.34,456.6,126.463,456.6Z" transform="translate(-110.655 -420.536)" fill="#e5e5e5"/>
      <path id="Path_13502" data-name="Path 13502" d="M194.148,346.153l-.788.573h1.575l-.645.428s.215-.073.215.285a16.886,16.886,0,0,0,.285,1.718l.43.93a2.682,2.682,0,0,1,.688.56,16.8,16.8,0,0,0-1.31-4.776Z" transform="translate(-161.113 -338.595)" fill="#e5e5e5"/>
      <path id="Path_13503" data-name="Path 13503" d="M189.058,373.629a12.264,12.264,0,0,1-1.145,3.075c-.5.575-.715,2.36-.93,2.79a7.027,7.027,0,0,1-.573,1.358,3.918,3.918,0,0,0-.41,1.18,25.633,25.633,0,0,0,2.055-2.683c1.36-2.145,2.5-6.651,2.5-11.084a20.621,20.621,0,0,0-.143-2.445v1.873l-.715.715.43.858-.43.43A22.055,22.055,0,0,1,189.058,373.629Z" transform="translate(-155.593 -353.557)" fill="#e5e5e5"/>
      <path id="Path_13504" data-name="Path 13504" d="M162.357,346.895a7.284,7.284,0,0,0,2.933,1.645c.878.293,1.19.25,1.413.425-.035-.1-.09-.173-.125-.283a4.886,4.886,0,0,0-.93-1.143,15.735,15.735,0,0,0-1.288-1.073,7.838,7.838,0,0,0-1.788-.36c-.148.03-.22.228-.25.45A.947.947,0,0,0,162.357,346.895Z" transform="translate(-137.833 -338.767)" fill="#c7c7c7"/>
    </g>
  </g>
</svg>
