<svg xmlns="http://www.w3.org/2000/svg" width="41" height="41" viewBox="0 0 41 41">
  <g id="Group_5386" data-name="Group 5386" transform="translate(-587 -6357)">
    <circle id="Ellipse_534" data-name="Ellipse 534" cx="20.5" cy="20.5" r="20.5" transform="translate(587 6357)" fill="#171b4a" opacity="0.1"/>
    <path id="Icon_awesome-twitter" data-name="Icon awesome-twitter" d="M19.332,7.742c.014.191.014.383.014.574A12.478,12.478,0,0,1,6.781,20.881,12.479,12.479,0,0,1,0,18.9a9.135,9.135,0,0,0,1.066.055,8.844,8.844,0,0,0,5.482-1.887A4.424,4.424,0,0,1,2.42,14a5.569,5.569,0,0,0,.834.068,4.67,4.67,0,0,0,1.162-.15A4.417,4.417,0,0,1,.875,9.588V9.533a4.447,4.447,0,0,0,2,.561A4.423,4.423,0,0,1,1.5,4.187a12.552,12.552,0,0,0,9.105,4.621A4.985,4.985,0,0,1,10.5,7.8a4.42,4.42,0,0,1,7.643-3.021,8.694,8.694,0,0,0,2.8-1.066A4.4,4.4,0,0,1,19,6.142a8.853,8.853,0,0,0,2.543-.684,9.493,9.493,0,0,1-2.215,2.283Z" transform="translate(596.727 6365.369)" fill="#171b4a"/>
  </g>
</svg>
